<svg width="131" height="147" fill="none" xmlns="http://www.w3.org/2000/svg"><path d="M67.636 49.572h-3.054v15.099h3.054v-6.73h4.354v6.73h3.054V49.572H71.99v5.881h-4.354v-5.88zm15.212 3.62c-1.093.037-2.073.226-2.94.565a8.15 8.15 0 00-2.489 1.64l1.697 1.753c.603-.49 1.13-.848 1.583-1.075a3.64 3.64 0 011.414-.282c.49 0 .886.113 1.188.339.339.264.509.622.509 1.074 0 .34-.095.679-.283 1.018-.226.34-.603.735-1.131 1.188-.566.414-1.339.904-2.319 1.47a12.63 12.63 0 01-1.018.509 3.724 3.724 0 00-.565.34c-.189.075-.415.169-.679.282v2.658h9.048l.679-2.432H83.64c-.415 0-.792.019-1.131.057-.415 0-.754.019-1.018.056a1.43 1.43 0 01.34-.17c.075-.037.169-.075.282-.113.264-.15.566-.339.905-.565.415-.226.773-.433 1.074-.622.34-.188.66-.396.962-.622a6.798 6.798 0 001.47-1.47c.34-.566.528-1.225.566-1.98-.038-1.13-.434-1.997-1.188-2.6-.716-.642-1.734-.98-3.054-1.019z" fill="#22B14C"/><path d="M51.01 78.016V7.048c0-3.356 1.678-5.033 5.033-5.033H93.65c3.355 0 5.033 1.677 5.033 5.033V50.42m0 0c.49-.113.999-.17 1.527-.17 1.659 0 3.072.566 4.241 1.697 1.131 1.131 1.716 2.507 1.753 4.128v11.762c.038 1.584.604 2.922 1.697 4.015 1.206 1.206 2.639 1.81 4.298 1.81 1.659 0 3.562-.604 4.693-1.81 2.28-2.431 1.131-25.616 1.131-27.313m-19.34 5.881v27.596m-40.321-62.43h32.97v21.941h-32.97v-21.94zm-15.891 63.9h64.695v7.634H42.471v-7.634z" stroke="#4F4F4F" stroke-width="3.5" stroke-linecap="round" stroke-linejoin="round"/><path d="M123.34 32.382v8.934c0 1.584-.792 2.375-2.376 2.375h-5.768c-1.583 0-2.375-.791-2.375-2.375V30.46l-6.39-5.994v-8.539l14.76 13.968.169.113 1.98 1.979v.396z" stroke="#22B14C" stroke-width="3.5" stroke-linecap="round" stroke-linejoin="round"/><path d="M130.261 132.258l-.002-.002-11.151-11.096a2.133 2.133 0 10-3.01 3.025l7.486 7.45H78.39a2.134 2.134 0 100 4.268h45.194l-7.486 7.45a2.133 2.133 0 103.011 3.025l11.15-11.096.002-.002a2.137 2.137 0 000-3.022z" fill="#4F4F4F"/><path d="M26.804 132.258l.002-.002 11.15-11.096a2.133 2.133 0 113.011 3.025l-7.486 7.45h45.194a2.134 2.134 0 110 4.268H33.48l7.486 7.45a2.134 2.134 0 01-3.01 3.025l-11.152-11.096-.001-.002a2.137 2.137 0 010-3.022zM11.72 9.626l-.002.002L.621 20.778a2.134 2.134 0 003.026 3.011l7.45-7.486v45.194a2.134 2.134 0 104.268 0V16.303l7.45 7.486a2.134 2.134 0 103.025-3.01L14.743 9.627l-.002-.002a2.136 2.136 0 00-3.02 0z" fill="#4F4F4F"/><path d="M11.72 113.083l-.002-.002-11.097-11.15a2.134 2.134 0 013.026-3.011l7.45 7.486V61.212a2.134 2.134 0 114.268 0v45.194l7.45-7.486a2.134 2.134 0 113.025 3.011l-11.097 11.15-.002.002a2.135 2.135 0 01-3.02 0z" fill="#4F4F4F"/></svg>