<svg width="120" height="120" fill="none" xmlns="http://www.w3.org/2000/svg"><path d="M63.45 102.9h-8.325m-14.625 0h-8.325H40.5zm45.825 0H78h8.325z" stroke="#4F4F4F" stroke-width="3.5" stroke-linecap="round" stroke-linejoin="round"/><path d="M80.775 20.175c4.45 1.1 7.925.25 10.425-2.55 1.15-1.3 2.075-3.025 2.775-5.175.1-.25.175-.5.225-.75-2.2-1.4-4.9-1.35-8.1.15-.4.2-.75.4-1.05.6-1.95 1.2-3.225 2.925-3.825 5.175-.25.8-.4 1.65-.45 2.55zm0 0c-2.1.75-3.575 2.075-4.425 3.975v8.325l4.425-12.3zm-40.2 15.075c6.95 1.6 11.5-1.325 13.65-8.775-3.2-1.3-6.375-1.175-9.525.375-3.1 1.5-4.5 4.3-4.2 8.4h.075zm0 0c-.85.95-1.575 1.95-2.175 3-1.15 1.85-1.7 3.725-1.65 5.625v6l3.825-14.625zm-3.825 8.625c-.75-1.65-2.025-2.8-3.825-3.45-3.85 1-6.85.275-9-2.175-1.1-1.25-1.975-2.95-2.625-5.1 1.95-1.25 4.3-1.2 7.05.15 2.2 1 3.6 2.65 4.2 4.95.2.7.325 1.425.375 2.175M76.35 24.15c.05-2.2-.575-4.375-1.875-6.525-.7-1.2-1.575-2.35-2.625-3.45-4.35 1-7.9.425-10.65-1.725a.872.872 0 00-.225-.15c-1.5-1.25-2.75-2.975-3.75-5.175-.4-.95-.775-2-1.125-3.15C57.75 3.325 59.375 3 60.975 3c2.05-.05 4.1.425 6.15 1.425 1.45.7 2.575 1.6 3.375 2.7 1 1.45 1.525 3.225 1.575 5.325 0 .55-.025 1.125-.075 1.725h-.15l4.5 9.975z" stroke="#22B14C" stroke-width="3.5" stroke-linecap="round" stroke-linejoin="round"/><path d="M69.224 44.25v-11.1h13.65v48.9l18.15-2.175v37.275H17.399v-27.3L30 88.425V51.45h13.575v35.325l25.65-3.075V44.25zm0 0h13.65-13.65zm0 39.45l13.65-1.65m-13.65-29.025h13.65-13.65zM30 71.4h13.575H30zm0-8.775h13.575H30zm0 25.8l13.575-1.65L30 88.425z" stroke="#4F4F4F" stroke-width="3.5" stroke-linecap="round" stroke-linejoin="round"/></svg>