<svg width="55" height="55" fill="none" xmlns="http://www.w3.org/2000/svg"><g clip-path="url(#clip0)" fill="#00A2E8"><path d="M36.459 27.782l18.542 11.722V15.565L36.459 27.782zM0 15.565v23.939l18.542-11.722L0 15.565zm51.563-6.971H3.438C1.723 8.594.36 9.873.104 11.519L27.5 29.57l27.397-18.05c-.258-1.646-1.619-2.925-3.334-2.925zM33.309 29.858l-4.864 3.204a1.723 1.723 0 01-1.891 0l-4.864-3.207L.11 43.505c.264 1.633 1.618 2.901 3.327 2.901h48.125c1.708 0 3.063-1.268 3.327-2.901L33.31 29.858z"/></g><defs><clipPath id="clip0"><path fill="#fff" d="M0 0h55v55H0z"/></clipPath></defs></svg>