<svg width="37" height="55" fill="none" xmlns="http://www.w3.org/2000/svg"><path d="M18.5 25.781a8.057 8.057 0 100-16.113 8.057 8.057 0 000 16.113z" fill="#00A2E8"/><path d="M18.5 0C9.787 0 .775 6.63.775 17.725c0 10.135 15.815 29.442 16.487 30.25a1.615 1.615 0 002.476 0c.672-.808 16.487-20.115 16.487-30.25C36.225 7.95 28.273 0 18.5 0zm0 29.004c-6.219 0-11.28-5.06-11.28-11.28 0-6.218 5.061-11.279 11.28-11.279 6.219 0 11.28 5.06 11.28 11.28 0 6.218-5.061 11.279-11.28 11.279z" fill="#00A2E8"/><path d="M29.359 40.585a140.394 140.394 0 01-7.142 9.45 4.834 4.834 0 01-7.427.008 140.535 140.535 0 01-7.149-9.458C3.471 42.06.775 44.355.775 46.943.775 51.393 8.711 55 18.5 55c9.789 0 17.725-3.607 17.725-8.057 0-2.587-2.695-4.884-6.866-6.358z" fill="#00A2E8"/></svg>