<svg width="123" height="124" fill="none" xmlns="http://www.w3.org/2000/svg"><path d="M121.111 61.659c0 16.457-5.848 30.48-17.542 42.068-11.589 11.695-25.612 17.542-42.069 17.542-16.404 0-30.453-5.847-42.148-17.542C7.763 92.139 1.969 78.116 1.969 61.659c0-16.404 5.794-30.454 17.383-42.148C31.047 7.92 45.096 2.127 61.5 2.127c16.457 0 30.48 5.795 42.069 17.384 11.694 11.694 17.542 25.744 17.542 42.148z" stroke="#4F4F4F" stroke-width="3.5" stroke-linecap="round" stroke-linejoin="round"/><path d="M90.155 26.734l.159.158c1.11.9 2.196 1.88 3.254 2.937 2.487 2.487 4.63 5.133 6.43 7.938 0 .053.026.08.079.08a.923.923 0 01.159.237 44.633 44.633 0 015.715 13.573l.158.953c.635 3.07.953 6.27.953 9.604 0 3.44-.344 6.747-1.032 9.922-1.746 8.414-5.9 15.849-12.462 22.305-6.456 6.561-13.89 10.715-22.304 12.462-3.175.687-6.483 1.031-9.922 1.031v-91.44c5.874 0 11.35.98 16.43 2.937 4.392 1.64 8.52 4.075 12.383 7.303zm0 0L61.342 55.467l28.813-28.733zM61.342 76.422l38.735-38.576m-31.036 68.818l36.83-36.433-36.83 36.433zm-7.7-70.882l16.431-16.35-16.43 16.35zm0 60.405l44.61-44.53-44.61 44.53z" stroke="#22B14C" stroke-width="3.5" stroke-linecap="round" stroke-linejoin="round"/></svg>