<svg width="134" height="135" fill="none" xmlns="http://www.w3.org/2000/svg"><path d="M101.069 77.056l-.949 19.924M81.663 60.151l19.406 16.905 30.877-12.765-17.853-14.403-11.127 4.485-8.107-7.332c-14.375 4.428-21.563 6.757-21.563 6.987l-6.727 16.99 30.274 43.557c13.742-1.265 23.805-7.906 30.187-19.924l4.916-30.36-50.283-4.14zM42.246 99.395l8.022 11.04 23.287-9.919c-8.97-12.305-13.57-18.457-13.8-18.457l-20.7 11.385-6.986 11.126 3.709 5.003-4.4 7.245 7.418 14.921c10.35 2.76 19.09 1.696 26.22-3.192 7.82-6.554 10.667-15.898 8.54-28.031l-31.31-1.121zm8.022 11.04l-6.297 12.506 6.297-12.506z" stroke="#4F4F4F" stroke-width="3.5" stroke-linecap="round" stroke-linejoin="round"/><path d="M29.74 81.541C14.79 81.14 5.705 74.7 2.485 62.221c-1.897-10.005.863-19.578 8.28-28.721 7.475-9.2 9.833-19.521 7.073-30.964 16.847 8.625 23 22.799 18.457 42.521 9.028-4.887 12.851-11.442 11.471-19.665 9.258 6.728 13.685 16.503 13.283 29.326" stroke="#22B14C" stroke-width="3.5" stroke-linecap="round" stroke-linejoin="round"/></svg>