<svg width="81" height="81" fill="none" xmlns="http://www.w3.org/2000/svg"><g clip-path="url(#clip0)"><path d="M67.791 48.444l-12.529-4.82c.852-4.029.05-8.395-2.547-11.97L65.81 18.56C72.424 22.585 81 17.811 81 10.006 81 4.489 76.511 0 70.994 0 63.182 0 58.42 8.583 62.44 15.191L49.346 28.285a15.052 15.052 0 00-18.65.755l-6.663-5.664c3.325-6.617-1.51-14.482-8.945-14.482-5.517 0-10.006 4.489-10.006 10.006 0 8.189 9.317 12.849 15.864 8.105l6.662 5.663a15.053 15.053 0 00.677 16.678l-8.715 8.715C11.328 52.473 0 58.364 0 68.453 0 75.37 5.629 81 12.547 81c10.08 0 15.986-11.319 10.392-19.57l8.715-8.715a15.046 15.046 0 0012.458 2.435l5.416 12.803C44.405 72.5 47.628 81 54.477 81c4.116 0 7.464-3.349 7.464-7.465 0-4.277-3.635-7.77-8.026-7.441l-5.417-12.805a15.203 15.203 0 005.05-5.218l12.53 4.82c-.178 4.269 3.246 7.78 7.457 7.78 4.116 0 7.465-3.349 7.465-7.465 0-6.924-8.733-10.152-13.209-4.762z" fill="#828282"/><path d="M42.618 46H40.69v-4.286h-3.761V46H35V36h1.929v4.052h3.76V36h1.93v10zM47 46h-3.208v-.68l1.514-1.724c.208-.242.361-.454.46-.635.1-.181.15-.353.15-.515 0-.222-.052-.396-.157-.522-.105-.128-.255-.193-.45-.193a.6.6 0 00-.498.234c-.12.153-.18.356-.18.608h-.932c0-.305.067-.583.202-.835a1.48 1.48 0 01.579-.59c.248-.145.53-.217.845-.217.482 0 .856.124 1.122.371.268.248.402.597.402 1.048 0 .247-.06.499-.18.755-.12.257-.326.555-.617.896L44.988 45.2H47v.8z" fill="#fff"/></g><defs><clipPath id="clip0"><path fill="#fff" d="M0 0h81v81H0z"/></clipPath></defs></svg>