<svg width="30" height="22" fill="none" xmlns="http://www.w3.org/2000/svg"><path d="M6.208 0C8 0 9.472.576 10.624 1.728c1.152 1.11 1.728 2.581 1.728 4.416 0 .853-.107 1.707-.32 2.56-.213.853-.683 2.133-1.408 3.84L6.976 21.76H.64l2.816-10.176a5.501 5.501 0 01-2.56-2.048C.299 8.555 0 7.424 0 6.144c0-1.835.576-3.307 1.728-4.416C2.923.576 4.416 0 6.208 0zm16.75 0c1.792 0 3.264.576 4.416 1.728 1.152 1.11 1.728 2.581 1.728 4.416 0 .853-.107 1.707-.32 2.56-.213.853-.683 2.133-1.408 3.84l-3.648 9.216H17.39l2.816-10.176a5.501 5.501 0 01-2.56-2.048c-.597-.981-.896-2.112-.896-3.392 0-1.835.576-3.307 1.728-4.416C19.673.576 21.166 0 22.958 0z" fill="#fff"/></svg>