<svg width="92" height="92" fill="none" xmlns="http://www.w3.org/2000/svg"><path d="M69.633 78.315l3.047-2.127 10.638 7.302-3.68-12.305 10.235-7.82-12.88-.345-4.313-12.133-4.255 12.133-3.564.115m-35.766 17.71l.806 2.645-3.796-2.645h2.99zm-6.67-2.53l-3.047-2.127L8.741 83.49l3.68-12.305-10.235-7.82 12.88-.345 4.312-12.133 4.255 12.133 3.565.115-4.773 15.18z" stroke="#22B14C" stroke-width="3.5" stroke-linecap="round" stroke-linejoin="round"/><path d="M45.77 9.143l9.717 27.6 29.268.747-23.23 17.825 8.337 28.175L45.77 66.815 21.62 83.49l8.337-28.175L6.727 37.49l29.268-.747 9.775-27.6z" stroke="#4F4F4F" stroke-width="3.5" stroke-linecap="round" stroke-linejoin="round"/></svg>