<svg width="109" height="109" fill="none" xmlns="http://www.w3.org/2000/svg"><path d="M79.91 79.366c0-1.09-.408-2.044-1.225-2.862-.773-.772-1.704-1.158-2.794-1.158s-2.043.386-2.86 1.158c-.773.818-1.159 1.772-1.159 2.862s.386 2.02 1.158 2.793c.818.817 1.771 1.226 2.861 1.226 1.09 0 2.021-.409 2.794-1.226.817-.772 1.226-1.703 1.226-2.793z" fill="#4F4F4F"/><path d="M22.686 15.26v-4.428M54.704 51.23c0-3.406 1.204-6.336 3.61-8.788 2.453-2.407 5.383-3.61 8.79-3.61 3.405 0 6.312 1.203 8.72 3.61 2.452 2.452 3.678 5.382 3.678 8.788H54.704zM43.123 29.907c0 2.77-1 5.132-2.997 7.085-1.999 1.998-4.383 2.997-7.154 2.997-2.77 0-5.154-.999-7.153-2.997-1.953-1.953-2.93-4.315-2.93-7.085 0-2.77.977-5.155 2.93-7.153 1.999-1.953 4.383-2.93 7.153-2.93 2.77 0 5.155.977 7.154 2.93 1.998 1.998 2.997 4.383 2.997 7.153zM32.019 10.764V2.998v7.766zm10.218 4.155v-3.542 3.542z" stroke="#22B14C" stroke-width="3.5" stroke-linecap="round" stroke-linejoin="round"/><path d="M92.582 87.609v10.695c0 5.45-2.725 8.175-8.175 8.175H24.389c-5.45 0-8.175-2.725-8.175-8.175V60.495c0-5.45 2.725-8.175 8.175-8.175h60.018c5.45 0 8.175 2.725 8.175 8.175v10.696c.318.227.613.477.886.75 1.59 1.589 2.384 3.519 2.384 5.79V81c0 2.27-.795 4.2-2.384 5.79-.273.273-.568.545-.886.818zm0 0c-1.408 1.044-3.043 1.567-4.905 1.567H74.188c-2.27 0-4.2-.795-5.79-2.385-1.59-1.59-2.385-3.52-2.385-5.79v-3.27c0-2.271.795-4.201 2.385-5.79 1.59-1.59 3.52-2.385 5.79-2.385h13.489c1.862 0 3.497.545 4.905 1.635" stroke="#4F4F4F" stroke-width="3.5" stroke-linecap="round" stroke-linejoin="round"/></svg>