<svg width="89" height="92" fill="none" xmlns="http://www.w3.org/2000/svg"><path d="M28.667 51.229h-3.173v15.686h3.173v-6.991h4.523v6.991h3.173V51.229H33.19v6.11h-4.523v-6.11zm15.803 3.76c-1.135.039-2.154.235-3.055.587-.94.392-1.801.96-2.585 1.704l1.763 1.821c.627-.509 1.175-.881 1.645-1.116.47-.196.96-.294 1.469-.294.509 0 .92.118 1.233.353.353.274.53.646.53 1.116 0 .353-.099.705-.295 1.058-.235.352-.626.763-1.175 1.233-.587.431-1.39.94-2.408 1.528-.431.235-.784.411-1.058.529a3.87 3.87 0 00-.587.352c-.196.078-.431.176-.705.294v2.761h9.4l.705-2.526h-4.054c-.43 0-.823.02-1.175.059-.43 0-.783.02-1.058.058a1.49 1.49 0 01.353-.176 2.11 2.11 0 01.294-.117c.274-.157.587-.353.94-.588.43-.235.803-.45 1.116-.646.352-.196.685-.411.999-.646a7.06 7.06 0 001.527-1.528c.353-.587.548-1.273.588-2.056-.04-1.175-.45-2.076-1.234-2.703-.744-.666-1.802-1.018-3.173-1.057z" fill="#22B14C"/><path d="M11.394 80.78V7.05c0-3.486 1.743-5.229 5.228-5.229h39.07c3.485 0 5.228 1.743 5.228 5.229v45.06m0 0a7.032 7.032 0 011.586-.176c1.724 0 3.192.587 4.406 1.762 1.175 1.175 1.782 2.605 1.822 4.29v12.22c.039 1.644.626 3.034 1.762 4.17 1.254 1.254 2.742 1.88 4.465 1.88 1.724 0 3.701-.626 4.876-1.88C82.206 71.85 81.012 47.763 81.012 46M60.92 52.11v28.67M19.031 15.92h34.252v22.795H19.03V15.92zM2.522 82.308h67.21v7.93H2.523v-7.93z" stroke="#4F4F4F" stroke-width="3.5" stroke-linecap="round" stroke-linejoin="round"/><path d="M86.535 33.369v9.282c0 1.645-.822 2.468-2.468 2.468h-5.992c-1.645 0-2.468-.822-2.468-2.468v-11.28l-6.638-6.227v-8.871l15.334 14.511.176.117 2.056 2.057v.411z" stroke="#22B14C" stroke-width="3.5" stroke-linecap="round" stroke-linejoin="round"/></svg>