<svg width="334" height="416" fill="none" xmlns="http://www.w3.org/2000/svg"><path d="M3 116.629V3h291v48M3 316.943V413h131.366M294 176.5v180.271" stroke="#828282" stroke-width="5"/><g clip-path="url(#clip0)"><path d="M320.791 114.444l-12.529-4.819c.852-4.03.049-8.396-2.547-11.971l13.094-13.094c6.615 4.025 15.191-.749 15.191-8.554C334 70.489 329.511 66 323.994 66c-7.812 0-12.575 8.583-8.554 15.191l-13.094 13.094a15.052 15.052 0 00-18.649.755l-6.664-5.664c3.325-6.617-1.51-14.482-8.945-14.482-5.517 0-10.006 4.489-10.006 10.006 0 8.189 9.317 12.849 15.864 8.105l6.662 5.663a15.053 15.053 0 00.677 16.678l-8.715 8.715c-8.242-5.588-19.57.303-19.57 10.392 0 6.918 5.629 12.547 12.547 12.547 10.081 0 15.986-11.319 10.392-19.57l8.715-8.715a15.046 15.046 0 0012.458 2.435l5.416 12.803c-5.123 4.546-1.9 13.047 4.948 13.047 4.117 0 7.465-3.349 7.465-7.465 0-4.277-3.635-7.769-8.026-7.441l-5.417-12.806a15.19 15.19 0 005.049-5.218l12.532 4.821c-.179 4.269 3.245 7.78 7.456 7.78 4.116 0 7.465-3.349 7.465-7.465 0-6.924-8.733-10.152-13.209-4.762z" fill="#828282"/><path d="M295.619 112h-1.929v-4.286h-3.761V112H288v-10h1.929v4.052h3.761V102h1.929v10zm4.381 0h-3.208v-.68l1.514-1.724c.208-.243.361-.454.46-.635.1-.181.151-.353.151-.515 0-.222-.053-.396-.158-.522-.105-.128-.255-.193-.45-.193a.598.598 0 00-.498.234c-.12.153-.18.356-.18.608h-.932c0-.305.067-.583.202-.835a1.48 1.48 0 01.579-.59c.248-.145.53-.217.845-.217.482 0 .856.124 1.122.371.268.247.402.597.402 1.048 0 .247-.06.499-.18.755s-.326.555-.617.896l-1.064 1.199H300v.8z" fill="#fff"/></g><defs><clipPath id="clip0"><path fill="#fff" transform="translate(253 66)" d="M0 0h81v81H0z"/></clipPath></defs></svg>