<svg width="203" height="103" fill="none" xmlns="http://www.w3.org/2000/svg"><path d="M88.362 58.67v4.698h-3.744V58.67c0-.468-.162-.63-.612-.63h-1.188c-.45 0-.612.162-.612.63v11.7c0 .468.162.63.612.63h1.188c.45 0 .612-.162.612-.63v-5.022h3.744v5.022c0 .468.162.63.612.63h1.188c.45 0 .612-.162.612-.63v-11.7c0-.468-.162-.63-.612-.63h-1.188c-.45 0-.612.162-.612.63zm11.706-.63c-.558 0-.684.36-.846.774l-1.89 4.932-1.89-4.932c-.162-.45-.306-.774-.864-.774H93.21c-.504 0-.684.234-.432.756l3.33 6.948v4.59c0 .486.18.666.648.666h1.134c.45 0 .648-.18.648-.666v-4.59l3.366-6.948c.252-.504.072-.756-.414-.756h-1.422zm3.82.63v11.7c0 .468.162.63.612.63h2.772c4.338 0 6.066-3.204 6.066-6.408 0-3.276-1.548-6.552-6.156-6.552H104.5c-.45 0-.612.162-.612.63zm3.366 1.116c2.736 0 3.69 2.394 3.69 4.824 0 2.304-1.008 4.554-3.654 4.554h-.99v-9.378h.954zM123.812 71c.486 0 .54-.198.27-.702l-2.466-4.554c1.296-.612 2.16-1.89 2.16-3.6 0-2.34-1.332-4.104-3.996-4.104h-3.438c-.45 0-.612.162-.612.63v11.7c0 .468.162.63.612.63h1.188c.45 0 .612-.162.612-.63v-4.23h1.332l2.034 4.14c.306.594.468.72 1.008.72h1.296zm-4.464-11.088c1.44 0 2.142.864 2.142 2.25 0 1.278-.72 2.106-2.142 2.106h-1.206v-4.356h1.206zm17.433 4.68c0-3.096-1.08-6.75-5.454-6.75s-5.454 3.654-5.454 6.75 1.08 6.606 5.454 6.606 5.454-3.51 5.454-6.606zm-8.604-.018c0-2.196.594-4.716 3.15-4.716 2.538 0 3.15 2.538 3.15 4.716 0 2.214-.612 4.626-3.15 4.626-2.556 0-3.15-2.394-3.15-4.626zm20.478 5.238V64.79c0-.468-.216-.63-.576-.63h-3.564c-.36 0-.504.126-.504.45v1.08c0 .306.18.432.504.432h1.836v2.88a6.728 6.728 0 01-1.548.198c-2.106 0-3.744-1.206-3.744-4.608 0-3.24 1.548-4.59 3.78-4.59 1.638 0 2.7.702 3.078.702.342 0 .486-.486.486-.846 0-.54-.324-.936-.9-1.26-.756-.432-1.962-.666-3.06-.666-3.6 0-5.796 2.466-5.796 6.66 0 4.41 2.286 6.678 5.778 6.678 2.214 0 4.23-.54 4.23-1.458zm2.533-11.142v11.7c0 .468.162.63.612.63h5.778c.36 0 .504-.144.504-.468V69.47c0-.306-.198-.45-.504-.45H153.6v-3.582h3.042c.36 0 .504-.144.504-.468v-1.08c0-.288-.198-.432-.504-.432H153.6V60.02h3.978c.36 0 .504-.144.504-.468V58.49c0-.306-.198-.45-.504-.45H151.8c-.45 0-.612.162-.612.63zm16.584-.072v8.586l-.648-1.116-4.23-7.398c-.288-.432-.378-.63-.828-.63h-1.026c-.378 0-.54.144-.54.558v11.844c0 .414.162.558.54.558h1.026c.378 0 .522-.144.522-.558v-8.46c.216.378.468.81.774 1.296l4.014 7.02c.288.468.396.702.954.702h1.008c.378 0 .522-.144.522-.558V58.598c0-.414-.144-.558-.522-.558h-1.044c-.378 0-.522.144-.522.558z" fill="#00A2E8"/><path fill="#22B14C" d="M52 78h25v25H52z"/><path fill="#00A2E8" d="M52 52h25v25H52z"/><path fill="#22B14C" d="M55 55h19v19H55z"/><path fill="#00A2E8" d="M52 26h25v25H52zm-26 0h25v25H26zM0 26h25v25H0zm0 26h25v25H0z"/><path fill="#22B14C" d="M78 26h25v25H78z"/><path fill="#00A2E8" d="M52 0h25v25H52zM0 0h25v25H0z"/><path fill="#22B14C" d="M55 29h19v19H55zm-26 0h19v19H29z"/><path d="M86 45.214c0 .58.31.786.681.786h7.741c.413 0 .578-.166.578-.538v-1.22c0-.352-.248-.518-.578-.518h-5.47c.908-2.71 5.738-4.2 5.738-8.358 0-3.249-2.27-4.366-4.438-4.366-1.796 0-4.087.683-4.087 2.648 0 .538.268.807.475.807.413 0 1.445-.952 3.014-.952 1.341 0 2.27.456 2.27 1.945 0 2.959-5.924 5.152-5.924 9.766z" fill="#fff"/><path d="M89.226 87.02c.36 0 .504-.144.504-.468V85.49c0-.306-.216-.45-.504-.45h-7.47c-.36 0-.504.144-.504.468v1.062c0 .306.198.45.504.45h2.538v10.35c0 .468.18.63.612.63h1.188c.432 0 .612-.162.612-.63V87.02h2.52zm2.502-1.35v11.7c0 .468.162.63.612.63h5.778c.36 0 .504-.144.504-.468V96.47c0-.306-.198-.45-.504-.45H94.14v-3.582h3.042c.36 0 .504-.144.504-.468v-1.08c0-.288-.198-.432-.504-.432H94.14V87.02h3.978c.36 0 .504-.144.504-.468V85.49c0-.306-.198-.45-.504-.45H92.34c-.45 0-.612.162-.612.63zm13.78-.738c-3.114 0-5.202 2.232-5.202 6.678 0 4.428 2.088 6.66 5.202 6.66 1.926 0 3.78-.594 3.78-2.07 0-.324-.144-.72-.486-.72-.323 0-1.331.72-2.844.72-1.818 0-3.239-1.242-3.239-4.59 0-3.384 1.421-4.608 3.239-4.608 1.476 0 2.341.738 2.719.738.288 0 .449-.468.449-.828 0-.414-.179-.774-.575-1.098-.702-.576-1.963-.882-3.043-.882zm11.984.738v4.698h-3.744V85.67c0-.468-.162-.63-.612-.63h-1.188c-.45 0-.612.162-.612.63v11.7c0 .468.162.63.612.63h1.188c.45 0 .612-.162.612-.63v-5.022h3.744v5.022c0 .468.162.63.612.63h1.188c.45 0 .612-.162.612-.63v-11.7c0-.468-.162-.63-.612-.63h-1.188c-.45 0-.612.162-.612.63zm12.642-.072v8.586l-.648-1.116-4.23-7.398c-.288-.432-.378-.63-.828-.63h-1.026c-.378 0-.54.144-.54.558v11.844c0 .414.162.558.54.558h1.026c.378 0 .522-.144.522-.558v-8.46c.216.378.468.81.774 1.296l4.014 7.02c.288.468.396.702.954.702h1.008c.378 0 .522-.144.522-.558V85.598c0-.414-.144-.558-.522-.558h-1.044c-.378 0-.522.144-.522.558zm15.413 5.994c0-3.096-1.08-6.75-5.454-6.75s-5.454 3.654-5.454 6.75 1.08 6.606 5.454 6.606 5.454-3.51 5.454-6.606zm-8.604-.018c0-2.196.594-4.716 3.15-4.716 2.538 0 3.15 2.538 3.15 4.716 0 2.214-.612 4.626-3.15 4.626-2.556 0-3.15-2.394-3.15-4.626zm11.011-5.904v11.7c0 .468.162.63.612.63h5.13c.342 0 .486-.162.486-.486v-1.17c0-.306-.198-.45-.486-.45h-3.33V85.67c0-.468-.162-.63-.612-.63h-1.188c-.45 0-.612.162-.612.63zm18.291 5.922c0-3.096-1.08-6.75-5.454-6.75s-5.454 3.654-5.454 6.75 1.08 6.606 5.454 6.606 5.454-3.51 5.454-6.606zm-8.604-.018c0-2.196.594-4.716 3.15-4.716 2.538 0 3.15 2.538 3.15 4.716 0 2.214-.612 4.626-3.15 4.626-2.556 0-3.15-2.394-3.15-4.626zm20.478 5.238V91.79c0-.468-.216-.63-.576-.63h-3.564c-.36 0-.504.126-.504.45v1.08c0 .306.18.432.504.432h1.836v2.88a6.728 6.728 0 01-1.548.198c-2.106 0-3.744-1.206-3.744-4.608 0-3.24 1.548-4.59 3.78-4.59 1.638 0 2.7.702 3.078.702.342 0 .486-.486.486-.846 0-.54-.324-.936-.9-1.26-.756-.432-1.962-.666-3.06-.666-3.6 0-5.796 2.466-5.796 6.66 0 4.41 2.286 6.678 5.778 6.678 2.214 0 4.23-.54 4.23-1.458zm2.533-11.142v11.7c0 .468.162.63.612.63h1.188c.45 0 .612-.162.612-.63v-11.7c0-.468-.162-.63-.612-.63h-1.188c-.45 0-.612.162-.612.63zm5.356 0v11.7c0 .468.162.63.612.63h5.778c.36 0 .504-.144.504-.468V96.47c0-.306-.198-.45-.504-.45h-3.978v-3.582h3.042c.36 0 .504-.144.504-.468v-1.08c0-.288-.198-.432-.504-.432h-3.042V87.02h3.978c.36 0 .504-.144.504-.468V85.49c0-.306-.198-.45-.504-.45h-5.778c-.45 0-.612.162-.612.63zm8.646 10.674c0 .54.252.918.648 1.224.648.468 1.764.738 2.97.738 2.538 0 4.14-1.242 4.14-3.924 0-4.842-5.13-3.276-5.13-6.03 0-1.116.81-1.53 1.818-1.53 1.404 0 2.16.756 2.538.756.234 0 .432-.252.432-.72 0-.54-.306-1.008-.882-1.35-.702-.432-1.656-.594-2.43-.594-1.854 0-3.762.882-3.762 3.582 0 4.392 5.112 3.006 5.112 5.976 0 1.044-.558 1.926-2.196 1.926-1.656 0-2.556-.9-2.898-.9-.306 0-.36.576-.36.846z" fill="#22B14C"/></svg>