<svg width="115" height="114" fill="none" xmlns="http://www.w3.org/2000/svg"><path d="M19.735 68.093c-1.112-1.112-2.465-1.668-4.06-1.668-1.547 0-2.876.556-3.988 1.668-1.112 1.111-1.667 2.44-1.667 3.987 0 1.595.555 2.948 1.667 4.06 1.112 1.112 2.44 1.668 3.988 1.668 1.595 0 2.948-.556 4.06-1.668 1.111-1.112 1.667-2.465 1.667-4.06 0-1.547-.556-2.876-1.668-3.987zm78.662-1.668c-1.547 0-2.876.556-3.988 1.668-1.111 1.111-1.667 2.44-1.667 3.987 0 1.595.556 2.948 1.667 4.06 1.112 1.112 2.441 1.668 3.988 1.668 1.595 0 2.948-.556 4.06-1.668 1.112-1.112 1.668-2.465 1.668-4.06 0-1.547-.556-2.876-1.668-3.987-1.112-1.112-2.465-1.668-4.06-1.668z" fill="#22B14C"/><path d="M57.072 2.625v14.573h13.123V8.57c0-1.208.483-1.813 1.45-1.813h11.31c.966 0 1.45.605 1.45 1.813v8.628h26.462c.967 0 1.45.483 1.45 1.45v92.002c0 .967-.483 1.45-1.45 1.45H3.277c-.967 0-1.45-.483-1.45-1.45V18.648c0-.967.483-1.45 1.45-1.45H29.74V8.57c0-1.208.483-1.813 1.45-1.813H42.5c.918 0 1.377.605 1.377 1.813v8.628h13.195V112.1 2.625zm13.123 14.573h14.21v73.514c-.194.822-.677 1.233-1.45 1.233h-11.31c-.774 0-1.233-.41-1.378-1.232a2.385 2.385 0 01-.072-.58V17.197zM29.74 90.132v.58c.193.822.676 1.233 1.45 1.233H42.5c.725 0 1.16-.41 1.305-1.232a2.38 2.38 0 00.072-.58V17.197H29.74v72.934z" stroke="#4F4F4F" stroke-width="3.5" stroke-linecap="round" stroke-linejoin="round"/><path d="M106.154 41.34c0 1.547-.531 2.876-1.595 3.987-1.111 1.112-2.465 1.668-4.06 1.668-1.594 0-2.924-.556-3.987-1.667-1.112-1.112-1.668-2.441-1.668-3.988 0-1.595.556-2.948 1.668-4.06 1.063-1.112 2.392-1.668 3.987-1.668 1.595 0 2.949.556 4.06 1.668 1.064 1.112 1.595 2.465 1.595 4.06zm-98.237 0c0 1.547.556 2.876 1.667 3.987 1.112 1.112 2.466 1.668 4.06 1.668 1.547 0 2.876-.556 3.988-1.667 1.112-1.112 1.667-2.441 1.667-3.988 0-1.595-.555-2.948-1.667-4.06-1.112-1.112-2.44-1.668-3.988-1.668-1.595 0-2.948.556-4.06 1.668-1.111 1.112-1.667 2.465-1.667 4.06zm5.438 58c0 1.643.58 3.021 1.74 4.133 1.063 1.16 2.416 1.74 4.06 1.74 1.643 0 3.044-.58 4.204-1.74 1.064-1.112 1.595-2.49 1.595-4.133 0-1.595-.531-2.972-1.595-4.133-1.16-1.111-2.561-1.667-4.205-1.667-1.643 0-2.996.556-4.06 1.667-1.16 1.16-1.74 2.538-1.74 4.133zm87.434 0c0 1.643-.58 3.021-1.74 4.133-1.111 1.16-2.465 1.74-4.06 1.74-1.643 0-3.044-.58-4.205-1.74-1.111-1.112-1.667-2.49-1.667-4.133 0-1.595.556-2.972 1.667-4.133 1.16-1.111 2.562-1.667 4.206-1.667 1.595 0 2.948.556 4.06 1.667 1.159 1.16 1.739 2.538 1.739 4.133z" stroke="#22B14C" stroke-width="3.5" stroke-linecap="round" stroke-linejoin="round"/></svg>