<svg width="121" height="118" fill="none" xmlns="http://www.w3.org/2000/svg"><path d="M48.2 115.926l-1.538-73.185m-8.687 73.339L25.521 53.35c-2.255 1.486-4.791 2.28-7.61 2.383-4.049.154-7.585-1.179-10.609-3.997-2.972-2.717-4.536-6.1-4.69-10.148-.153-4.1 1.154-7.61 3.921-10.532 2.768-3.024 6.15-4.612 10.148-4.766a22.235 22.235 0 01-.692-4.305c-.205-5.023 1.46-9.456 4.997-13.3 3.485-3.792 7.841-5.79 13.069-5.996 3.587-.102 6.842.667 9.763 2.307 1.23.666 2.409 1.537 3.536 2.613.256-.512.59-.999 1-1.46a11.992 11.992 0 011.998-1.615c1.589-1.127 3.485-1.742 5.689-1.845 2.972-.102 5.56.872 7.764 2.922 2.307 2.05 3.51 4.587 3.613 7.61.052 1.384-.128 2.665-.538 3.844 1.384-.359 2.896-.564 4.536-.615 5.022-.205 9.404 1.435 13.145 4.92a18.221 18.221 0 013.306 3.844c1.64 2.614 2.537 5.586 2.69 8.917.206 5.228-1.434 9.66-4.92 13.3-.41.46-.845.87-1.306 1.23-3.229 2.972-7.047 4.56-11.455 4.766-1.486.051-2.92 0-4.305-.154l-7.84 62.807H37.974zm30.596-62.807l1.307-10.609-1.306 10.61zm-43.05.077l-1.845-8.456 1.846 8.456z" stroke="#4F4F4F" stroke-width="3.5" stroke-linecap="round" stroke-linejoin="round"/><path d="M72.031 115.465l10.455-56.35m13.607-.845c-.051 2.306 1.102 4.382 3.46 6.227 1.64 1.384 3.561 2.255 5.765 2.614 3.28.46 6.201-.308 8.764-2.307 2.562-1.947 4.074-4.484 4.536-7.61.512-3.229-.206-6.176-2.153-8.84-1.948-2.563-4.51-4.1-7.687-4.613.41-.974.691-2.05.845-3.23.564-4.048-.384-7.738-2.844-11.07-2.46-3.28-5.715-5.227-9.763-5.842l-.923 34.671zm-13.376 57.349l16.835-51.122-16.835 51.122z" stroke="#22B14C" stroke-width="3.5" stroke-linecap="round" stroke-linejoin="round"/></svg>