<svg width="122" height="122" fill="none" xmlns="http://www.w3.org/2000/svg"><path d="M70.53 27.908c17.59 4.066 29.18-3.38 34.771-22.342-8.184-3.355-16.292-3.05-24.324.915-7.98 3.915-11.59 11.031-10.827 21.35a.84.84 0 00.38.077zm0 0l.306-.687-.305.687zM50.936 41.25c-9.862 2.39-17.487.483-22.875-5.718-2.898-3.152-5.135-7.498-6.71-13.04 4.829-3.05 10.802-2.897 17.918.458 5.541 2.542 9.125 6.736 10.752 12.582.457 1.779.762 3.685.915 5.718zm0 0c4.625 1.576 7.879 4.423 9.76 8.54-.102-4.676 1.296-9.43 4.193-14.258 1.474-2.542 3.355-5.084 5.643-7.625L50.935 41.25zm9.76 38.735V49.791" stroke="#22B14C" stroke-width="3.5" stroke-linecap="round" stroke-linejoin="round"/><path d="M47.656 80.444h26.307m-32.94-22.037h39.573-39.574zm32.94 0v47.504c0 3.66-1.297 6.761-3.89 9.303-2.592 2.592-5.693 3.888-9.302 3.888s-6.684-1.296-9.226-3.888c-2.593-2.542-3.889-5.643-3.889-9.303V58.407h26.307z" stroke="#4F4F4F" stroke-width="3.5" stroke-linecap="round" stroke-linejoin="round"/></svg>