<svg width="147" height="135" fill="none" xmlns="http://www.w3.org/2000/svg"><path d="M31.125 18.879h-2.642c-1.133 0-2.265.063-3.398.188-5.788.693-10.822 3.178-15.1 7.456C4.89 31.62 2.341 37.785 2.341 45.021v18.497c0 7.236 2.548 13.401 7.644 18.498 4.279 4.278 9.312 6.763 15.1 7.455 1.133.126 2.265.189 3.398.189h2.642V18.879zm0 0v-4.813 4.813zm72.197 70.781h13.024V18.879h-85.22m85.22-4.813v4.813h2.737c1.069 0 2.17.063 3.303.188 5.788.693 10.821 3.178 15.1 7.456 5.159 5.096 7.739 11.262 7.739 18.498v18.497c0 7.236-2.58 13.401-7.739 18.498-4.279 4.278-9.312 6.763-15.1 7.455a29.91 29.91 0 01-3.303.189h-2.737v3.586-79.18zM45.093 16.99a7.476 7.476 0 01-.095-1.227c0-3.775 1.322-7.046 3.964-9.815 2.768-2.642 6.04-3.963 9.815-3.963h30.294c3.775 0 7.016 1.32 9.721 3.963 2.705 2.769 4.058 6.04 4.058 9.815v1.227H45.093zm4.294 72.669H31.125v3.586l18.262-3.586z" stroke="#4F4F4F" stroke-width="3.5" stroke-linecap="round" stroke-linejoin="round"/><path d="M49.387 89.66a47.14 47.14 0 013.634-5.096c7.424-9.123 9.752-19.41 6.983-30.86 16.862 8.556 23.028 22.712 18.498 42.468 8.997-4.845 12.803-11.42 11.42-19.724 9.122 6.669 13.558 16.295 13.306 28.878v.567c-1.258 18.497-11.67 27.431-31.238 26.802-14.974-.44-24.066-6.889-27.274-19.347-1.538-8.202.019-16.098 4.671-23.688z" stroke="#22B14C" stroke-width="3.5" stroke-linecap="round" stroke-linejoin="round"/></svg>