<svg width="131" height="147" viewBox="0 0 131 147" fill="none" xmlns="http://www.w3.org/2000/svg">
<path d="M67.6358 49.5725H64.582V64.6707H67.6358V57.9415H71.9903V64.6707H75.0441V49.5725H71.9903V55.4534H67.6358V49.5725ZM82.8482 53.1915C81.7549 53.2292 80.7746 53.4177 79.9075 53.757C79.0027 54.134 78.1733 54.6806 77.4192 55.3969L79.1158 57.1499C79.719 56.6598 80.2468 56.3016 80.6992 56.0755C81.1516 55.887 81.6229 55.7927 82.113 55.7927C82.6031 55.7927 82.999 55.9058 83.3006 56.132C83.6399 56.3959 83.8096 56.754 83.8096 57.2064C83.8096 57.5457 83.7153 57.885 83.5268 58.2243C83.3006 58.5635 82.9236 58.9594 82.3958 59.4118C81.8303 59.8264 81.0574 60.3165 80.0772 60.882C79.6624 61.1082 79.3231 61.2778 79.0592 61.3909C78.833 61.504 78.6445 61.6171 78.4937 61.7302C78.3052 61.8056 78.079 61.8998 77.8151 62.0129V64.6707H86.8633L87.542 62.2391H83.6399C83.2252 62.2391 82.8482 62.258 82.5089 62.2957C82.0942 62.2957 81.7549 62.3145 81.4909 62.3522C81.6041 62.2768 81.7172 62.2203 81.8303 62.1826C81.9057 62.1449 81.9999 62.1072 82.113 62.0695C82.3769 61.9187 82.6785 61.7302 83.0178 61.504C83.4326 61.2778 83.7907 61.0705 84.0923 60.882C84.4316 60.6935 84.7521 60.4862 85.0537 60.26C85.6192 59.8453 86.1093 59.3552 86.524 58.7897C86.8633 58.2243 87.0519 57.5645 87.0896 56.8106C87.0519 55.6796 86.656 54.8126 85.902 54.2094C85.1856 53.5685 84.1677 53.2292 82.8482 53.1915Z" fill="#22B14C"/>
<path d="M51.01 78.0158V7.04769C51.01 3.69249 52.6877 2.01489 56.0431 2.01489H93.6499C97.0052 2.01489 98.6829 3.69249 98.6829 7.04769V50.4203M98.6829 50.4203C99.1731 50.3072 99.682 50.2506 100.21 50.2506C101.869 50.2506 103.282 50.8161 104.451 51.9471C105.582 53.078 106.167 54.454 106.204 56.0751V67.8371C106.242 69.4205 106.808 70.7588 107.901 71.8521C109.107 73.0584 110.54 73.6616 112.199 73.6616C113.858 73.6616 115.761 73.0584 116.892 71.8521C119.172 69.4205 118.023 46.2357 118.023 44.5392M98.6829 50.4203V78.0158M58.3617 15.5865H91.3312V37.5272H58.3617V15.5865ZM42.4707 79.4861H107.166V87.1201H42.4707V79.4861Z" stroke="#4F4F4F" stroke-width="3.5" stroke-linecap="round" stroke-linejoin="round"/>
<path d="M123.34 32.3818V41.3164C123.34 42.8997 122.548 43.6914 120.964 43.6914H115.196C113.613 43.6914 112.821 42.8997 112.821 41.3164V30.4591L106.431 24.465V15.9263L121.191 29.8937L121.36 30.0068L123.34 31.9859C123.34 32.099 123.34 32.231 123.34 32.3818Z" stroke="#22B14C" stroke-width="3.5" stroke-linecap="round" stroke-linejoin="round"/>
<path d="M130.261 132.258L130.259 132.256L119.108 121.16C118.273 120.328 116.922 120.331 116.09 121.167C115.259 122.002 115.262 123.353 116.098 124.185L123.584 131.635H78.3901C77.2115 131.635 76.2561 132.59 76.2561 133.769C76.2561 134.948 77.2115 135.903 78.3901 135.903H123.584L116.098 143.353C115.262 144.185 115.259 145.536 116.091 146.371C116.922 147.207 118.273 147.21 119.109 146.378L130.259 135.282L130.261 135.28C131.097 134.445 131.094 133.09 130.261 132.258Z" fill="#4F4F4F"/>
<path d="M26.8037 132.258L26.8056 132.256L37.9563 121.16C38.7916 120.328 40.1428 120.331 40.9743 121.167C41.8057 122.002 41.8025 123.353 40.9672 124.185L33.4806 131.635H78.6747C79.8533 131.635 80.8087 132.59 80.8087 133.769C80.8087 134.948 79.8533 135.903 78.6747 135.903H33.4807L40.9671 143.353C41.8024 144.185 41.8056 145.536 40.9742 146.371C40.1427 147.207 38.7914 147.21 37.9562 146.378L26.8055 135.282L26.8036 135.28C25.9678 134.445 25.9704 133.09 26.8037 132.258Z" fill="#4F4F4F"/>
<path d="M11.7203 9.62585L11.7183 9.62778L0.62142 20.7785C-0.209888 21.6138 -0.206794 22.965 0.628675 23.7965C1.46404 24.6279 2.81519 24.6247 3.64661 23.7893L11.0969 16.3028L11.0969 61.4968C11.0969 62.6755 12.0523 63.6309 13.2309 63.6309C14.4095 63.6309 15.3649 62.6755 15.3649 61.4968L15.3649 16.3029L22.8152 23.7892C23.6466 24.6246 24.9978 24.6278 25.8332 23.7964C26.6687 22.9649 26.6716 21.6136 25.8404 20.7784L14.7435 9.62767L14.7415 9.62576C13.9073 8.78996 12.5518 8.79263 11.7203 9.62585Z" fill="#4F4F4F"/>
<path d="M11.7203 113.083L11.7183 113.081L0.62142 101.931C-0.209888 101.095 -0.206794 99.7442 0.628675 98.9127C1.46404 98.0812 2.81519 98.0844 3.64661 98.9198L11.0969 106.406L11.0969 61.2123C11.0969 60.0337 12.0523 59.0783 13.2309 59.0783C14.4095 59.0783 15.3649 60.0337 15.3649 61.2123L15.3649 106.406L22.8152 98.9199C23.6466 98.0845 24.9978 98.0813 25.8332 98.9128C26.6687 99.7443 26.6716 101.096 25.8404 101.931L14.7435 113.081L14.7415 113.083C13.9073 113.919 12.5518 113.917 11.7203 113.083Z" fill="#4F4F4F"/>
</svg>
