<svg width="89" height="92" viewBox="0 0 89 92" fill="none" xmlns="http://www.w3.org/2000/svg">
<path d="M28.6666 51.2288H25.4941V66.915H28.6666V59.9238H33.1904V66.915H36.3629V51.2288H33.1904V57.3388H28.6666V51.2288ZM44.4704 54.9888C43.3346 55.0279 42.3162 55.2238 41.4154 55.5763C40.4754 55.9679 39.6137 56.5358 38.8304 57.28L40.5929 59.1013C41.2196 58.5921 41.7679 58.22 42.2379 57.985C42.7079 57.7892 43.1975 57.6913 43.7066 57.6913C44.2158 57.6913 44.6271 57.8088 44.9404 58.0438C45.2929 58.3179 45.4691 58.69 45.4691 59.16C45.4691 59.5125 45.3712 59.865 45.1754 60.2175C44.9404 60.57 44.5487 60.9813 44.0004 61.4513C43.4129 61.8821 42.61 62.3913 41.5916 62.9788C41.1608 63.2138 40.8083 63.39 40.5341 63.5075C40.2991 63.625 40.1033 63.7425 39.9466 63.86C39.7508 63.9383 39.5158 64.0363 39.2416 64.1538V66.915H48.6416L49.3466 64.3888H45.2929C44.8621 64.3888 44.4704 64.4083 44.1179 64.4475C43.6871 64.4475 43.3346 64.4671 43.0604 64.5063C43.1779 64.4279 43.2954 64.3692 43.4129 64.33C43.4912 64.2908 43.5891 64.2517 43.7066 64.2125C43.9808 64.0558 44.2941 63.86 44.6466 63.625C45.0775 63.39 45.4496 63.1746 45.7629 62.9788C46.1154 62.7829 46.4483 62.5675 46.7616 62.3325C47.3491 61.9017 47.8583 61.3925 48.2891 60.805C48.6416 60.2175 48.8375 59.5321 48.8766 58.7488C48.8375 57.5738 48.4262 56.6729 47.6429 56.0463C46.8987 55.3804 45.8412 55.0279 44.4704 54.9888Z" fill="#22B14C"/>
<path d="M11.3937 80.7801V7.04882C11.3937 3.56298 13.1366 1.82007 16.6225 1.82007H55.6912C59.177 1.82007 60.92 3.56298 60.92 7.04882V52.1101M60.92 52.1101C61.4291 51.9926 61.9579 51.9338 62.5062 51.9338C64.2295 51.9338 65.6983 52.5213 66.9125 53.6963C68.0875 54.8713 68.6945 56.3009 68.7337 57.9851V70.2051C68.7729 71.8501 69.3604 73.2405 70.4962 74.3763C71.7495 75.6296 73.2379 76.2563 74.9612 76.2563C76.6845 76.2563 78.6622 75.6296 79.8372 74.3763C82.2056 71.8501 81.0122 47.7626 81.0122 46.0001M60.92 52.1101V80.7801M19.0312 15.9201H53.2825V38.7151H19.0312V15.9201ZM2.52246 82.3076H69.7325V90.2388H2.52246V82.3076Z" stroke="#4F4F4F" stroke-width="3.5" stroke-linecap="round" stroke-linejoin="round"/>
<path d="M86.535 33.369V42.6515C86.535 44.2965 85.7125 45.119 84.0675 45.119H78.075C76.43 45.119 75.6075 44.2965 75.6075 42.6515V31.3715L68.9688 25.144V16.2727L84.3025 30.784L84.4787 30.9015L86.535 32.9577C86.535 33.0752 86.535 33.2123 86.535 33.369Z" stroke="#22B14C" stroke-width="3.5" stroke-linecap="round" stroke-linejoin="round"/>
</svg>
