<svg width="120" height="120" viewBox="0 0 120 120" fill="none" xmlns="http://www.w3.org/2000/svg">
<path d="M63.4498 102.9H55.1248M40.4998 102.9H32.1748H40.4998ZM86.3248 102.9H77.9998H86.3248Z" stroke="#4F4F4F" stroke-width="3.5" stroke-linecap="round" stroke-linejoin="round"/>
<path d="M80.7748 20.1749C85.2248 21.2749 88.6998 20.4249 91.1998 17.6249C92.3498 16.3249 93.2748 14.5999 93.9748 12.4499C94.0748 12.1999 94.1498 11.9499 94.1998 11.6999C91.9998 10.2999 89.2998 10.3499 86.0998 11.8499C85.6998 12.0499 85.3498 12.2499 85.0498 12.4499C83.0998 13.6499 81.8248 15.3749 81.2248 17.6249C80.9748 18.4249 80.8248 19.2749 80.7748 20.1749ZM80.7748 20.1749C78.6748 20.9249 77.1998 22.2499 76.3498 24.1499V32.4749L80.7748 20.1749ZM40.5748 35.2499C47.5248 36.8499 52.0748 33.9249 54.2248 26.4749C51.0248 25.1749 47.8498 25.2999 44.6998 26.8499C41.5998 28.3499 40.1998 31.1499 40.4998 35.2499H40.5748ZM40.5748 35.2499C39.7248 36.1999 38.9998 37.1999 38.3998 38.2499C37.2498 40.0999 36.6998 41.9749 36.7498 43.8749V49.8749L40.5748 35.2499ZM36.7498 43.8749C35.9998 42.2249 34.7248 41.0749 32.9248 40.4249C29.0748 41.4249 26.0748 40.6999 23.9248 38.2499C22.8248 36.9999 21.9498 35.2999 21.2998 33.1499C23.2498 31.8999 25.5998 31.9499 28.3498 33.2999C30.5498 34.2999 31.9498 35.9499 32.5498 38.2499C32.7498 38.9499 32.8748 39.6749 32.9248 40.4249M76.3498 24.1499C76.3998 21.9499 75.7748 19.7749 74.4748 17.6249C73.7748 16.4249 72.8998 15.2749 71.8498 14.1749C67.4998 15.1749 63.9498 14.5999 61.1998 12.4499C61.1498 12.3999 61.0748 12.3499 60.9748 12.2999C59.4748 11.0499 58.2248 9.32491 57.2248 7.12491C56.8248 6.17491 56.4498 5.12491 56.0998 3.97491C57.7498 3.32491 59.3748 2.99991 60.9748 2.99991C63.0248 2.94991 65.0748 3.42491 67.1248 4.42491C68.5748 5.12491 69.6998 6.02491 70.4998 7.12491C71.4998 8.57491 72.0248 10.3499 72.0748 12.4499C72.0748 12.9999 72.0498 13.5749 71.9998 14.1749C71.9498 14.1749 71.8998 14.1749 71.8498 14.1749L76.3498 24.1499Z" stroke="#22B14C" stroke-width="3.5" stroke-linecap="round" stroke-linejoin="round"/>
<path d="M69.2244 44.2499V33.1499H82.8744V44.2499V53.0249V82.0499L101.024 79.8749V117.15H17.3994V89.8499L29.9994 88.4249V71.3999V62.6249V51.4499H43.5744V62.6249V71.3999V86.7749L69.2244 83.6999V53.0249V44.2499ZM69.2244 44.2499H82.8744H69.2244ZM69.2244 83.6999L82.8744 82.0499M69.2244 53.0249H82.8744H69.2244ZM29.9994 71.3999H43.5744H29.9994ZM29.9994 62.6249H43.5744H29.9994ZM29.9994 88.4249L43.5744 86.7749L29.9994 88.4249Z" stroke="#4F4F4F" stroke-width="3.5" stroke-linecap="round" stroke-linejoin="round"/>
</svg>
