<svg width="92" height="92" viewBox="0 0 92 92" fill="none" xmlns="http://www.w3.org/2000/svg">
<path d="M69.633 78.315L72.6805 76.1875L83.318 83.49L79.638 71.185L89.873 63.365L76.993 63.02L72.6805 50.8875L68.4255 63.02L64.8605 63.135M29.0955 80.845L29.9005 83.49L26.1055 80.845H29.0955ZM22.4255 78.315L19.378 76.1875L8.74055 83.49L12.4205 71.185L2.18555 63.365L15.0655 63.02L19.378 50.8875L23.633 63.02L27.198 63.135L22.4255 78.315Z" stroke="#22B14C" stroke-width="3.5" stroke-linecap="round" stroke-linejoin="round"/>
<path d="M45.77 9.14258L55.4875 36.7426L84.755 37.4901L61.525 55.3151L69.8625 83.4901L45.77 66.8151L21.62 83.4901L29.9575 55.3151L6.72754 37.4901L35.995 36.7426L45.77 9.14258Z" stroke="#4F4F4F" stroke-width="3.5" stroke-linecap="round" stroke-linejoin="round"/>
</svg>
