<svg width="109" height="109" viewBox="0 0 109 109" fill="none" xmlns="http://www.w3.org/2000/svg">
<path d="M79.9108 79.3656C79.9108 78.2756 79.5021 77.3218 78.6846 76.5043C77.9125 75.7322 76.9814 75.3462 75.8914 75.3462C74.8014 75.3462 73.8477 75.7322 73.0302 76.5043C72.2581 77.3218 71.8721 78.2756 71.8721 79.3656C71.8721 80.4556 72.2581 81.3866 73.0302 82.1587C73.8477 82.9762 74.8014 83.3849 75.8914 83.3849C76.9814 83.3849 77.9125 82.9762 78.6846 82.1587C79.5021 81.3866 79.9108 80.4556 79.9108 79.3656Z" fill="#4F4F4F"/>
<path d="M22.6855 15.2601V10.8319M54.7043 51.2301C54.7043 47.8238 55.9078 44.8944 58.3149 42.4419C60.7674 40.0349 63.6968 38.8313 67.1031 38.8313C70.5093 38.8313 73.416 40.0349 75.8231 42.4419C78.2756 44.8944 79.5018 47.8238 79.5018 51.2301H54.7043ZM43.123 29.9069C43.123 32.6774 42.1239 35.039 40.1256 36.9919C38.1272 38.9903 35.7428 39.9894 32.9724 39.9894C30.202 39.9894 27.8176 38.9903 25.8193 36.9919C23.8664 35.039 22.8899 32.6774 22.8899 29.9069C22.8899 27.1365 23.8664 24.7521 25.8193 22.7538C27.8176 20.8009 30.202 19.8244 32.9724 19.8244C35.7428 19.8244 38.1272 20.8009 40.1256 22.7538C42.1239 24.7521 43.123 27.1365 43.123 29.9069ZM32.0187 10.7638V2.99756V10.7638ZM42.2374 14.9194V11.3769V14.9194Z" stroke="#22B14C" stroke-width="3.5" stroke-linecap="round" stroke-linejoin="round"/>
<path d="M92.582 87.6088V98.3044C92.582 103.754 89.857 106.479 84.407 106.479H24.3889C18.9389 106.479 16.2139 103.754 16.2139 98.3044V60.4951C16.2139 55.0451 18.9389 52.3201 24.3889 52.3201H84.407C89.857 52.3201 92.582 55.0451 92.582 60.4951V71.1907C92.8999 71.4178 93.1951 71.6676 93.4676 71.9401C95.0572 73.5296 95.852 75.4599 95.852 77.7307V81.0007C95.852 83.2715 95.0572 85.2017 93.4676 86.7913C93.1951 87.0638 92.8999 87.3363 92.582 87.6088ZM92.582 87.6088C91.1741 88.6534 89.5391 89.1757 87.677 89.1757H74.1882C71.9174 89.1757 69.9872 88.3809 68.3976 86.7913C66.808 85.2017 66.0132 83.2715 66.0132 81.0007V77.7307C66.0132 75.4599 66.808 73.5296 68.3976 71.9401C69.9872 70.3505 71.9174 69.5557 74.1882 69.5557H87.677C89.5391 69.5557 91.1741 70.1007 92.582 71.1907" stroke="#4F4F4F" stroke-width="3.5" stroke-linecap="round" stroke-linejoin="round"/>
</svg>
