<svg width="195" height="195" viewBox="0 0 195 195" fill="none" xmlns="http://www.w3.org/2000/svg">
<circle cx="4" cy="4" r="4" fill="#22B14C"/>
<circle cx="4" cy="21" r="4" fill="#22B14C"/>
<circle cx="4" cy="38" r="4" fill="#22B14C"/>
<circle cx="4" cy="55" r="4" fill="#22B14C"/>
<circle cx="4" cy="72" r="4" fill="#22B14C"/>
<circle cx="4" cy="89" r="4" fill="#22B14C"/>
<circle cx="4" cy="106" r="4" fill="#22B14C"/>
<circle cx="4" cy="123" r="4" fill="#22B14C"/>
<circle cx="4" cy="140" r="4" fill="#22B14C"/>
<circle cx="4" cy="157" r="4" fill="#22B14C"/>
<circle cx="4" cy="174" r="4" fill="#22B14C"/>
<circle cx="4" cy="191" r="4" fill="#22B14C"/>
<circle cx="21" cy="4" r="4" fill="#22B14C"/>
<circle cx="21" cy="21" r="4" fill="#22B14C"/>
<circle cx="21" cy="38" r="4" fill="#22B14C"/>
<circle cx="21" cy="55" r="4" fill="#22B14C"/>
<circle cx="21" cy="72" r="4" fill="#22B14C"/>
<circle cx="21" cy="89" r="4" fill="#22B14C"/>
<circle cx="21" cy="106" r="4" fill="#22B14C"/>
<circle cx="21" cy="123" r="4" fill="#22B14C"/>
<circle cx="21" cy="140" r="4" fill="#22B14C"/>
<circle cx="21" cy="157" r="4" fill="#22B14C"/>
<circle cx="21" cy="174" r="4" fill="#22B14C"/>
<circle cx="21" cy="191" r="4" fill="#22B14C"/>
<circle cx="38" cy="4" r="4" fill="#22B14C"/>
<circle cx="38" cy="21" r="4" fill="#22B14C"/>
<circle cx="38" cy="38" r="4" fill="#22B14C"/>
<circle cx="38" cy="55" r="4" fill="#22B14C"/>
<circle cx="38" cy="72" r="4" fill="#22B14C"/>
<circle cx="38" cy="89" r="4" fill="#22B14C"/>
<circle cx="38" cy="106" r="4" fill="#22B14C"/>
<circle cx="38" cy="123" r="4" fill="#22B14C"/>
<circle cx="38" cy="140" r="4" fill="#22B14C"/>
<circle cx="38" cy="157" r="4" fill="#22B14C"/>
<circle cx="38" cy="174" r="4" fill="#22B14C"/>
<circle cx="38" cy="191" r="4" fill="#22B14C"/>
<circle cx="55" cy="4" r="4" fill="#22B14C"/>
<circle cx="55" cy="21" r="4" fill="#22B14C"/>
<circle cx="55" cy="38" r="4" fill="#22B14C"/>
<circle cx="55" cy="55" r="4" fill="#22B14C"/>
<circle cx="55" cy="72" r="4" fill="#22B14C"/>
<circle cx="55" cy="89" r="4" fill="#22B14C"/>
<circle cx="55" cy="106" r="4" fill="#22B14C"/>
<circle cx="55" cy="123" r="4" fill="#22B14C"/>
<circle cx="55" cy="140" r="4" fill="#22B14C"/>
<circle cx="55" cy="157" r="4" fill="#22B14C"/>
<circle cx="55" cy="174" r="4" fill="#22B14C"/>
<circle cx="55" cy="191" r="4" fill="#22B14C"/>
<circle cx="72" cy="4" r="4" fill="#22B14C"/>
<circle cx="72" cy="21" r="4" fill="#22B14C"/>
<circle cx="72" cy="38" r="4" fill="#22B14C"/>
<circle cx="72" cy="55" r="4" fill="#22B14C"/>
<circle cx="72" cy="72" r="4" fill="#22B14C"/>
<circle cx="72" cy="89" r="4" fill="#22B14C"/>
<circle cx="72" cy="106" r="4" fill="#22B14C"/>
<circle cx="72" cy="123" r="4" fill="#22B14C"/>
<circle cx="72" cy="140" r="4" fill="#22B14C"/>
<circle cx="72" cy="157" r="4" fill="#22B14C"/>
<circle cx="72" cy="174" r="4" fill="#22B14C"/>
<circle cx="72" cy="191" r="4" fill="#22B14C"/>
<circle cx="89" cy="4" r="4" fill="#22B14C"/>
<circle cx="89" cy="21" r="4" fill="#22B14C"/>
<circle cx="89" cy="38" r="4" fill="#22B14C"/>
<circle cx="89" cy="55" r="4" fill="#22B14C"/>
<circle cx="89" cy="72" r="4" fill="#22B14C"/>
<circle cx="89" cy="89" r="4" fill="#22B14C"/>
<circle cx="89" cy="106" r="4" fill="#22B14C"/>
<circle cx="89" cy="123" r="4" fill="#22B14C"/>
<circle cx="89" cy="140" r="4" fill="#22B14C"/>
<circle cx="89" cy="157" r="4" fill="#22B14C"/>
<circle cx="89" cy="174" r="4" fill="#22B14C"/>
<circle cx="89" cy="191" r="4" fill="#22B14C"/>
<circle cx="106" cy="4" r="4" fill="#22B14C"/>
<circle cx="106" cy="21" r="4" fill="#22B14C"/>
<circle cx="106" cy="38" r="4" fill="#22B14C"/>
<circle cx="106" cy="55" r="4" fill="#22B14C"/>
<circle cx="106" cy="72" r="4" fill="#22B14C"/>
<circle cx="106" cy="89" r="4" fill="#22B14C"/>
<circle cx="106" cy="106" r="4" fill="#22B14C"/>
<circle cx="106" cy="123" r="4" fill="#22B14C"/>
<circle cx="106" cy="140" r="4" fill="#22B14C"/>
<circle cx="106" cy="157" r="4" fill="#22B14C"/>
<circle cx="106" cy="174" r="4" fill="#22B14C"/>
<circle cx="106" cy="191" r="4" fill="#22B14C"/>
<circle cx="123" cy="4" r="4" fill="#22B14C"/>
<circle cx="123" cy="21" r="4" fill="#22B14C"/>
<circle cx="123" cy="38" r="4" fill="#22B14C"/>
<circle cx="123" cy="55" r="4" fill="#22B14C"/>
<circle cx="123" cy="72" r="4" fill="#22B14C"/>
<circle cx="123" cy="89" r="4" fill="#22B14C"/>
<circle cx="123" cy="106" r="4" fill="#22B14C"/>
<circle cx="123" cy="123" r="4" fill="#22B14C"/>
<circle cx="123" cy="140" r="4" fill="#22B14C"/>
<circle cx="123" cy="157" r="4" fill="#22B14C"/>
<circle cx="123" cy="174" r="4" fill="#22B14C"/>
<circle cx="123" cy="191" r="4" fill="#22B14C"/>
<circle cx="140" cy="4" r="4" fill="#22B14C"/>
<circle cx="140" cy="21" r="4" fill="#22B14C"/>
<circle cx="140" cy="38" r="4" fill="#22B14C"/>
<circle cx="140" cy="55" r="4" fill="#22B14C"/>
<circle cx="140" cy="72" r="4" fill="#22B14C"/>
<circle cx="140" cy="89" r="4" fill="#22B14C"/>
<circle cx="140" cy="106" r="4" fill="#22B14C"/>
<circle cx="140" cy="123" r="4" fill="#22B14C"/>
<circle cx="140" cy="140" r="4" fill="#22B14C"/>
<circle cx="140" cy="157" r="4" fill="#22B14C"/>
<circle cx="140" cy="174" r="4" fill="#22B14C"/>
<circle cx="140" cy="191" r="4" fill="#22B14C"/>
<circle cx="157" cy="4" r="4" fill="#22B14C"/>
<circle cx="157" cy="21" r="4" fill="#22B14C"/>
<circle cx="157" cy="38" r="4" fill="#22B14C"/>
<circle cx="157" cy="55" r="4" fill="#22B14C"/>
<circle cx="157" cy="72" r="4" fill="#22B14C"/>
<circle cx="157" cy="89" r="4" fill="#22B14C"/>
<circle cx="157" cy="106" r="4" fill="#22B14C"/>
<circle cx="157" cy="123" r="4" fill="#22B14C"/>
<circle cx="157" cy="140" r="4" fill="#22B14C"/>
<circle cx="157" cy="157" r="4" fill="#22B14C"/>
<circle cx="157" cy="174" r="4" fill="#22B14C"/>
<circle cx="157" cy="191" r="4" fill="#22B14C"/>
<circle cx="174" cy="4" r="4" fill="#22B14C"/>
<circle cx="174" cy="21" r="4" fill="#22B14C"/>
<circle cx="174" cy="38" r="4" fill="#22B14C"/>
<circle cx="174" cy="55" r="4" fill="#22B14C"/>
<circle cx="174" cy="72" r="4" fill="#22B14C"/>
<circle cx="174" cy="89" r="4" fill="#22B14C"/>
<circle cx="174" cy="106" r="4" fill="#22B14C"/>
<circle cx="174" cy="123" r="4" fill="#22B14C"/>
<circle cx="174" cy="140" r="4" fill="#22B14C"/>
<circle cx="174" cy="157" r="4" fill="#22B14C"/>
<circle cx="174" cy="174" r="4" fill="#22B14C"/>
<circle cx="174" cy="191" r="4" fill="#22B14C"/>
<circle cx="191" cy="4" r="4" fill="#22B14C"/>
<circle cx="191" cy="21" r="4" fill="#22B14C"/>
<circle cx="191" cy="38" r="4" fill="#22B14C"/>
<circle cx="191" cy="55" r="4" fill="#22B14C"/>
<circle cx="191" cy="72" r="4" fill="#22B14C"/>
<circle cx="191" cy="89" r="4" fill="#22B14C"/>
<circle cx="191" cy="106" r="4" fill="#22B14C"/>
<circle cx="191" cy="123" r="4" fill="#22B14C"/>
<circle cx="191" cy="140" r="4" fill="#22B14C"/>
<circle cx="191" cy="157" r="4" fill="#22B14C"/>
<circle cx="191" cy="174" r="4" fill="#22B14C"/>
<circle cx="191" cy="191" r="4" fill="#22B14C"/>
</svg>
