<svg width="205" height="205" viewBox="0 0 205 205" fill="none" xmlns="http://www.w3.org/2000/svg">
<path d="M205 102.5C205 126.214 196.778 149.194 181.734 167.525C166.69 185.856 145.755 198.404 122.497 203.03C99.2385 207.657 75.0956 204.076 54.1818 192.897C33.268 181.718 16.8773 163.634 7.80235 141.725C-1.27257 119.816 -2.47017 95.4386 4.41361 72.7458C11.2974 50.053 25.8366 30.4491 45.554 17.2744C65.2714 4.09962 88.947 -1.8308 112.547 0.493564C136.146 2.81793 158.21 13.2533 174.978 30.0215L172.54 32.4602C156.336 16.2561 135.014 6.17186 112.209 3.9257C89.403 1.67954 66.524 7.41043 47.4701 20.1419C28.4161 32.8734 14.366 51.8177 7.71386 73.7469C1.06169 95.6762 2.21899 119.234 10.9886 140.405C19.7582 161.577 35.5974 179.053 55.8076 189.855C76.0177 200.658 99.3482 204.119 121.824 199.648C144.3 195.177 164.53 183.052 179.068 165.337C193.605 147.623 201.551 125.416 201.551 102.5H205Z" fill="#22B14C"/>
</svg>
