<svg width="55" height="55" viewBox="0 0 55 55" fill="none" xmlns="http://www.w3.org/2000/svg">
<g clip-path="url(#clip0)">
<path d="M36.459 27.7819L55.0009 39.5037V15.565L36.459 27.7819Z" fill="#00A2E8"/>
<path d="M0 15.565V39.5037L18.5419 27.7819L0 15.565Z" fill="#00A2E8"/>
<path d="M51.5629 8.59375H3.43789C1.72258 8.59375 0.361328 9.8725 0.103516 11.5191L27.5004 29.5694L54.8973 11.5191C54.6394 9.8725 53.2782 8.59375 51.5629 8.59375Z" fill="#00A2E8"/>
<path d="M33.3088 29.8581L28.4447 33.0619C28.1559 33.251 27.8294 33.3438 27.4994 33.3438C27.1694 33.3438 26.8428 33.251 26.5541 33.0619L21.69 29.8547L0.109375 43.505C0.374063 45.1378 1.72844 46.4063 3.43688 46.4063H51.5619C53.2703 46.4063 54.6247 45.1378 54.8894 43.505L33.3088 29.8581Z" fill="#00A2E8"/>
</g>
<defs>
<clipPath id="clip0">
<rect width="55" height="55" fill="white"/>
</clipPath>
</defs>
</svg>
