<svg width="37" height="55" viewBox="0 0 37 55" fill="none" xmlns="http://www.w3.org/2000/svg">
<path d="M18.5 25.7812C22.9496 25.7812 26.5566 22.1742 26.5566 17.7246C26.5566 13.275 22.9496 9.66797 18.5 9.66797C14.0504 9.66797 10.4434 13.275 10.4434 17.7246C10.4434 22.1742 14.0504 25.7812 18.5 25.7812Z" fill="#00A2E8"/>
<path d="M18.5 0C9.78723 0 0.775391 6.62943 0.775391 17.7246C0.775391 27.86 16.5897 47.1668 17.2616 47.9756C17.5684 48.3422 18.0217 48.5547 18.5 48.5547C18.9783 48.5547 19.4316 48.3422 19.7384 47.9756C20.4103 47.1668 36.2246 27.86 36.2246 17.7246C36.2246 7.95126 28.2733 0 18.5 0ZM18.5 29.0039C12.2812 29.0039 7.2207 23.9434 7.2207 17.7246C7.2207 11.5058 12.2812 6.44531 18.5 6.44531C24.7188 6.44531 29.7793 11.5058 29.7793 17.7246C29.7793 23.9434 24.7188 29.0039 18.5 29.0039Z" fill="#00A2E8"/>
<path d="M29.359 40.5851C26.2521 45.0832 23.3475 48.6747 22.2168 50.0354C21.2884 51.1447 19.935 51.7773 18.5 51.7773C17.065 51.7773 15.7117 51.1447 14.7895 50.0432C13.6561 48.6792 10.7496 45.0852 7.64126 40.5851C3.47007 42.0592 0.775391 44.3557 0.775391 46.9433C0.775391 51.3928 8.71107 55 18.5 55C28.2889 55 36.2246 51.3928 36.2246 46.9433C36.2246 44.3558 33.53 42.0592 29.359 40.5851Z" fill="#00A2E8"/>
</svg>
