<svg width="55" height="55" viewBox="0 0 55 55" fill="none" xmlns="http://www.w3.org/2000/svg">
<path d="M53.5039 40.3645L45.8285 32.689C43.0873 29.9478 38.4272 31.0444 37.3307 34.6079C36.5083 37.0751 33.7671 38.4457 31.3 37.8974C25.8176 36.5268 18.4163 29.3996 17.0457 23.643C16.2233 21.1758 17.868 18.4346 20.3351 17.6123C23.8987 16.5158 24.9952 11.8558 22.254 9.11456L14.5786 1.43914C12.3856 -0.479713 9.09614 -0.479713 7.17729 1.43914L1.96897 6.64746C-3.23935 12.1299 2.51721 26.6584 15.4009 39.5421C28.2847 52.4258 42.8131 58.4566 48.2956 52.9741L53.5039 47.7657C55.4229 45.5728 55.4229 42.2833 53.5039 40.3645Z" fill="#00A2E8"/>
</svg>
