<svg width="334" height="416" viewBox="0 0 334 416" fill="none" xmlns="http://www.w3.org/2000/svg">
<path d="M3 116.629V3H294V51M3 316.943V413H134.366M294 176.5V356.771" stroke="#22B14C" stroke-width="5"/>
<g clip-path="url(#clip0)">
<path d="M320.791 114.444L308.262 109.625C309.114 105.595 308.311 101.229 305.715 97.654L318.809 84.5604C325.424 88.5852 334 83.8113 334 76.0059C334 70.4887 329.511 66 323.994 66C316.182 66 311.419 74.583 315.44 81.1913L302.346 94.2849C296.724 90.2026 289.018 90.482 283.697 95.0402L277.033 89.376C280.358 82.7592 275.523 74.8941 268.088 74.8941C262.571 74.8941 258.082 79.3828 258.082 84.9C258.082 93.0888 267.399 97.749 273.946 93.0048L280.608 98.6681C277.457 103.837 277.706 110.418 281.285 115.346L272.57 124.061C264.328 118.473 253 124.364 253 134.453C253 141.371 258.629 147 265.547 147C275.628 147 281.533 135.681 275.939 127.43L284.654 118.715C288.306 121.367 292.866 122.197 297.112 121.15L302.528 133.953C297.405 138.499 300.628 147 307.476 147C311.593 147 314.941 143.651 314.941 139.535C314.941 135.258 311.306 131.766 306.915 132.094L301.498 119.288C303.574 117.985 305.312 116.192 306.547 114.07L319.079 118.891C318.9 123.16 322.324 126.671 326.535 126.671C330.651 126.671 334 123.322 334 119.206C334 112.282 325.267 109.054 320.791 114.444Z" fill="#22B14C"/>
<path d="M295.619 112H293.69V107.714H289.929V112H288V102H289.929V106.052H293.69V102H295.619V112Z" fill="white"/>
<path d="M300 112H296.792V111.32L298.306 109.596C298.514 109.353 298.667 109.142 298.766 108.961C298.866 108.78 298.917 108.608 298.917 108.446C298.917 108.224 298.864 108.05 298.759 107.924C298.654 107.796 298.504 107.731 298.309 107.731C298.099 107.731 297.933 107.809 297.811 107.965C297.691 108.118 297.631 108.321 297.631 108.573H296.699C296.699 108.268 296.766 107.99 296.901 107.738C297.038 107.486 297.231 107.29 297.48 107.148C297.728 107.003 298.01 106.931 298.325 106.931C298.807 106.931 299.181 107.055 299.447 107.302C299.715 107.549 299.849 107.899 299.849 108.35C299.849 108.597 299.789 108.849 299.669 109.105C299.549 109.361 299.343 109.66 299.052 110.001L297.988 111.2H300V112Z" fill="white"/>
</g>
<defs>
<clipPath id="clip0">
<rect width="81" height="81" fill="white" transform="translate(253 66)"/>
</clipPath>
</defs>
</svg>
