<svg width="203" height="103" viewBox="0 0 203 103" fill="none" xmlns="http://www.w3.org/2000/svg">
<path d="M88.3621 58.67V63.368H84.6181V58.67C84.6181 58.202 84.4561 58.04 84.0061 58.04H82.8181C82.3681 58.04 82.2061 58.202 82.2061 58.67V70.37C82.2061 70.838 82.3681 71 82.8181 71H84.0061C84.4561 71 84.6181 70.838 84.6181 70.37V65.348H88.3621V70.37C88.3621 70.838 88.5241 71 88.9741 71H90.1621C90.6121 71 90.7741 70.838 90.7741 70.37V58.67C90.7741 58.202 90.6121 58.04 90.1621 58.04H88.9741C88.5241 58.04 88.3621 58.202 88.3621 58.67Z" fill="#00A2E8"/>
<path d="M100.068 58.04C99.5104 58.04 99.3844 58.4 99.2224 58.814L97.3324 63.746L95.4424 58.814C95.2804 58.364 95.1364 58.04 94.5784 58.04H93.2104C92.7064 58.04 92.5264 58.274 92.7784 58.796L96.1084 65.744V70.334C96.1084 70.82 96.2884 71 96.7564 71H97.8904C98.3404 71 98.5384 70.82 98.5384 70.334V65.744L101.904 58.796C102.156 58.292 101.976 58.04 101.49 58.04H100.068Z" fill="#00A2E8"/>
<path d="M103.888 58.67V70.37C103.888 70.838 104.05 71 104.5 71H107.272C111.61 71 113.338 67.796 113.338 64.592C113.338 61.316 111.79 58.04 107.182 58.04H104.5C104.05 58.04 103.888 58.202 103.888 58.67ZM107.254 59.786C109.99 59.786 110.944 62.18 110.944 64.61C110.944 66.914 109.936 69.164 107.29 69.164H106.3V59.786H107.254Z" fill="#00A2E8"/>
<path d="M123.812 71C124.298 71 124.352 70.802 124.082 70.298L121.616 65.744C122.912 65.132 123.776 63.854 123.776 62.144C123.776 59.804 122.444 58.04 119.78 58.04H116.342C115.892 58.04 115.73 58.202 115.73 58.67V70.37C115.73 70.838 115.892 71 116.342 71H117.53C117.98 71 118.142 70.838 118.142 70.37V66.14H119.474L121.508 70.28C121.814 70.874 121.976 71 122.516 71H123.812ZM119.348 59.912C120.788 59.912 121.49 60.776 121.49 62.162C121.49 63.44 120.77 64.268 119.348 64.268H118.142V59.912H119.348Z" fill="#00A2E8"/>
<path d="M136.781 64.592C136.781 61.496 135.701 57.842 131.327 57.842C126.953 57.842 125.873 61.496 125.873 64.592C125.873 67.688 126.953 71.198 131.327 71.198C135.701 71.198 136.781 67.688 136.781 64.592ZM128.177 64.574C128.177 62.378 128.771 59.858 131.327 59.858C133.865 59.858 134.477 62.396 134.477 64.574C134.477 66.788 133.865 69.2 131.327 69.2C128.771 69.2 128.177 66.806 128.177 64.574Z" fill="#00A2E8"/>
<path d="M148.655 69.812V64.79C148.655 64.322 148.439 64.16 148.079 64.16H144.515C144.155 64.16 144.011 64.286 144.011 64.61V65.69C144.011 65.996 144.191 66.122 144.515 66.122H146.351V69.002C145.883 69.11 145.379 69.2 144.803 69.2C142.697 69.2 141.059 67.994 141.059 64.592C141.059 61.352 142.607 60.002 144.839 60.002C146.477 60.002 147.539 60.704 147.917 60.704C148.259 60.704 148.403 60.218 148.403 59.858C148.403 59.318 148.079 58.922 147.503 58.598C146.747 58.166 145.541 57.932 144.443 57.932C140.843 57.932 138.647 60.398 138.647 64.592C138.647 69.002 140.933 71.27 144.425 71.27C146.639 71.27 148.655 70.73 148.655 69.812Z" fill="#00A2E8"/>
<path d="M151.188 58.67V70.37C151.188 70.838 151.35 71 151.8 71H157.578C157.938 71 158.082 70.856 158.082 70.532V69.47C158.082 69.164 157.884 69.02 157.578 69.02H153.6V65.438H156.642C157.002 65.438 157.146 65.294 157.146 64.97V63.89C157.146 63.602 156.948 63.458 156.642 63.458H153.6V60.02H157.578C157.938 60.02 158.082 59.876 158.082 59.552V58.49C158.082 58.184 157.884 58.04 157.578 58.04H151.8C151.35 58.04 151.188 58.202 151.188 58.67Z" fill="#00A2E8"/>
<path d="M167.772 58.598V67.184L167.124 66.068L162.894 58.67C162.606 58.238 162.516 58.04 162.066 58.04H161.04C160.662 58.04 160.5 58.184 160.5 58.598V70.442C160.5 70.856 160.662 71 161.04 71H162.066C162.444 71 162.588 70.856 162.588 70.442V61.982C162.804 62.36 163.056 62.792 163.362 63.278L167.376 70.298C167.664 70.766 167.772 71 168.33 71H169.338C169.716 71 169.86 70.856 169.86 70.442V58.598C169.86 58.184 169.716 58.04 169.338 58.04H168.294C167.916 58.04 167.772 58.184 167.772 58.598Z" fill="#00A2E8"/>
<rect x="52" y="78" width="25" height="25" fill="#22B14C"/>
<rect x="52" y="52" width="25" height="25" fill="#00A2E8"/>
<rect x="55" y="55" width="19" height="19" fill="#22B14C"/>
<rect x="52" y="26" width="25" height="25" fill="#00A2E8"/>
<rect x="26" y="26" width="25" height="25" fill="#00A2E8"/>
<rect y="26" width="25" height="25" fill="#00A2E8"/>
<rect y="52" width="25" height="25" fill="#00A2E8"/>
<rect x="78" y="26" width="25" height="25" fill="#22B14C"/>
<rect x="52" width="25" height="25" fill="#00A2E8"/>
<rect width="25" height="25" fill="#00A2E8"/>
<rect x="55" y="29" width="19" height="19" fill="#22B14C"/>
<rect x="29" y="29" width="19" height="19" fill="#22B14C"/>
<path d="M86 45.2138C86 45.7931 86.3096 46 86.6812 46H94.422C94.8349 46 95 45.8345 95 45.4621V44.2414C95 43.8897 94.7523 43.7241 94.422 43.7241H88.9518C89.8601 41.0138 94.6904 39.5241 94.6904 35.3655C94.6904 32.1172 92.4197 31 90.2523 31C88.4564 31 86.1651 31.6828 86.1651 33.6483C86.1651 34.1862 86.4335 34.4552 86.6399 34.4552C87.0528 34.4552 88.0849 33.5034 89.6537 33.5034C90.9954 33.5034 91.9243 33.9586 91.9243 35.4483C91.9243 38.4069 86 40.6 86 45.2138Z" fill="white"/>
<path d="M89.226 87.02C89.586 87.02 89.73 86.876 89.73 86.552V85.49C89.73 85.184 89.514 85.04 89.226 85.04H81.756C81.396 85.04 81.252 85.184 81.252 85.508V86.57C81.252 86.876 81.45 87.02 81.756 87.02H84.294V97.37C84.294 97.838 84.474 98 84.906 98H86.094C86.526 98 86.706 97.838 86.706 97.37V87.02H89.226Z" fill="#22B14C"/>
<path d="M91.7284 85.67V97.37C91.7284 97.838 91.8904 98 92.3404 98H98.1184C98.4784 98 98.6224 97.856 98.6224 97.532V96.47C98.6224 96.164 98.4244 96.02 98.1184 96.02H94.1404V92.438H97.1824C97.5424 92.438 97.6864 92.294 97.6864 91.97V90.89C97.6864 90.602 97.4884 90.458 97.1824 90.458H94.1404V87.02H98.1184C98.4784 87.02 98.6224 86.876 98.6224 86.552V85.49C98.6224 85.184 98.4244 85.04 98.1184 85.04H92.3404C91.8904 85.04 91.7284 85.202 91.7284 85.67Z" fill="#22B14C"/>
<path d="M105.508 84.932C102.394 84.932 100.306 87.164 100.306 91.61C100.306 96.038 102.394 98.27 105.508 98.27C107.434 98.27 109.288 97.676 109.288 96.2C109.288 95.876 109.144 95.48 108.802 95.48C108.479 95.48 107.471 96.2 105.958 96.2C104.14 96.2 102.719 94.958 102.719 91.61C102.719 88.226 104.14 87.002 105.958 87.002C107.434 87.002 108.299 87.74 108.677 87.74C108.965 87.74 109.126 87.272 109.126 86.912C109.126 86.498 108.947 86.138 108.551 85.814C107.849 85.238 106.588 84.932 105.508 84.932Z" fill="#22B14C"/>
<path d="M117.492 85.67V90.368H113.748V85.67C113.748 85.202 113.586 85.04 113.136 85.04H111.948C111.498 85.04 111.336 85.202 111.336 85.67V97.37C111.336 97.838 111.498 98 111.948 98H113.136C113.586 98 113.748 97.838 113.748 97.37V92.348H117.492V97.37C117.492 97.838 117.654 98 118.104 98H119.292C119.742 98 119.904 97.838 119.904 97.37V85.67C119.904 85.202 119.742 85.04 119.292 85.04H118.104C117.654 85.04 117.492 85.202 117.492 85.67Z" fill="#22B14C"/>
<path d="M130.134 85.598V94.184L129.486 93.068L125.256 85.67C124.968 85.238 124.878 85.04 124.428 85.04H123.402C123.024 85.04 122.862 85.184 122.862 85.598V97.442C122.862 97.856 123.024 98 123.402 98H124.428C124.806 98 124.95 97.856 124.95 97.442V88.982C125.166 89.36 125.418 89.792 125.724 90.278L129.738 97.298C130.026 97.766 130.134 98 130.692 98H131.7C132.078 98 132.222 97.856 132.222 97.442V85.598C132.222 85.184 132.078 85.04 131.7 85.04H130.656C130.278 85.04 130.134 85.184 130.134 85.598Z" fill="#22B14C"/>
<path d="M145.547 91.592C145.547 88.496 144.467 84.842 140.093 84.842C135.719 84.842 134.639 88.496 134.639 91.592C134.639 94.688 135.719 98.198 140.093 98.198C144.467 98.198 145.547 94.688 145.547 91.592ZM136.943 91.574C136.943 89.378 137.537 86.858 140.093 86.858C142.631 86.858 143.243 89.396 143.243 91.574C143.243 93.788 142.631 96.2 140.093 96.2C137.537 96.2 136.943 93.806 136.943 91.574Z" fill="#22B14C"/>
<path d="M147.954 85.67V97.37C147.954 97.838 148.116 98 148.566 98H153.696C154.038 98 154.182 97.838 154.182 97.514V96.344C154.182 96.038 153.984 95.894 153.696 95.894H150.366V85.67C150.366 85.202 150.204 85.04 149.754 85.04H148.566C148.116 85.04 147.954 85.202 147.954 85.67Z" fill="#22B14C"/>
<path d="M166.245 91.592C166.245 88.496 165.165 84.842 160.791 84.842C156.417 84.842 155.337 88.496 155.337 91.592C155.337 94.688 156.417 98.198 160.791 98.198C165.165 98.198 166.245 94.688 166.245 91.592ZM157.641 91.574C157.641 89.378 158.235 86.858 160.791 86.858C163.329 86.858 163.941 89.396 163.941 91.574C163.941 93.788 163.329 96.2 160.791 96.2C158.235 96.2 157.641 93.806 157.641 91.574Z" fill="#22B14C"/>
<path d="M178.119 96.812V91.79C178.119 91.322 177.903 91.16 177.543 91.16H173.979C173.619 91.16 173.475 91.286 173.475 91.61V92.69C173.475 92.996 173.655 93.122 173.979 93.122H175.815V96.002C175.347 96.11 174.843 96.2 174.267 96.2C172.161 96.2 170.523 94.994 170.523 91.592C170.523 88.352 172.071 87.002 174.303 87.002C175.941 87.002 177.003 87.704 177.381 87.704C177.723 87.704 177.867 87.218 177.867 86.858C177.867 86.318 177.543 85.922 176.967 85.598C176.211 85.166 175.005 84.932 173.907 84.932C170.307 84.932 168.111 87.398 168.111 91.592C168.111 96.002 170.397 98.27 173.889 98.27C176.103 98.27 178.119 97.73 178.119 96.812Z" fill="#22B14C"/>
<path d="M180.652 85.67V97.37C180.652 97.838 180.814 98 181.264 98H182.452C182.902 98 183.064 97.838 183.064 97.37V85.67C183.064 85.202 182.902 85.04 182.452 85.04H181.264C180.814 85.04 180.652 85.202 180.652 85.67Z" fill="#22B14C"/>
<path d="M186.008 85.67V97.37C186.008 97.838 186.17 98 186.62 98H192.398C192.758 98 192.902 97.856 192.902 97.532V96.47C192.902 96.164 192.704 96.02 192.398 96.02H188.42V92.438H191.462C191.822 92.438 191.966 92.294 191.966 91.97V90.89C191.966 90.602 191.768 90.458 191.462 90.458H188.42V87.02H192.398C192.758 87.02 192.902 86.876 192.902 86.552V85.49C192.902 85.184 192.704 85.04 192.398 85.04H186.62C186.17 85.04 186.008 85.202 186.008 85.67Z" fill="#22B14C"/>
<path d="M194.654 96.344C194.654 96.884 194.906 97.262 195.302 97.568C195.95 98.036 197.066 98.306 198.272 98.306C200.81 98.306 202.412 97.064 202.412 94.382C202.412 89.54 197.282 91.106 197.282 88.352C197.282 87.236 198.092 86.822 199.1 86.822C200.504 86.822 201.26 87.578 201.638 87.578C201.872 87.578 202.07 87.326 202.07 86.858C202.07 86.318 201.764 85.85 201.188 85.508C200.486 85.076 199.532 84.914 198.758 84.914C196.904 84.914 194.996 85.796 194.996 88.496C194.996 92.888 200.108 91.502 200.108 94.472C200.108 95.516 199.55 96.398 197.912 96.398C196.256 96.398 195.356 95.498 195.014 95.498C194.708 95.498 194.654 96.074 194.654 96.344Z" fill="#22B14C"/>
</svg>
