<svg width="147" height="135" viewBox="0 0 147 135" fill="none" xmlns="http://www.w3.org/2000/svg">
<path d="M31.1252 18.8787H28.4827C27.3502 18.8787 26.2177 18.9416 25.0852 19.0675C19.2969 19.7596 14.2635 22.2448 9.9852 26.5231C4.88895 31.6193 2.34082 37.7852 2.34082 45.0206V63.5181C2.34082 70.7535 4.88895 76.9194 9.9852 82.0156C14.2635 86.2939 19.2969 88.7791 25.0852 89.4712C26.2177 89.5971 27.3502 89.66 28.4827 89.66H31.1252V18.8787ZM31.1252 18.8787V14.0656V18.8787ZM103.322 89.66H116.346V18.8787H31.1252M116.346 14.0656V18.8787H119.083C120.152 18.8787 121.253 18.9416 122.386 19.0675C128.174 19.7596 133.207 22.2448 137.486 26.5231C142.645 31.6193 145.225 37.7852 145.225 45.0206V63.5181C145.225 70.7535 142.645 76.9194 137.486 82.0156C133.207 86.2939 128.174 88.7791 122.386 89.4712C121.253 89.5971 120.152 89.66 119.083 89.66H116.346V93.2462V14.0656ZM45.0927 16.9912C45.0298 16.6137 44.9983 16.2048 44.9983 15.7643C44.9983 11.9893 46.3196 8.71768 48.9621 5.94935C51.7304 3.30685 55.0021 1.9856 58.7771 1.9856H89.0714C92.8464 1.9856 96.0867 3.30685 98.7921 5.94935C101.497 8.71768 102.85 11.9893 102.85 15.7643C102.85 16.2048 102.85 16.6137 102.85 16.9912H45.0927ZM49.3868 89.66H31.1252V93.2462L49.3868 89.66Z" stroke="#4F4F4F" stroke-width="3.5" stroke-linecap="round" stroke-linejoin="round"/>
<path d="M49.3872 89.66C50.4344 87.9524 51.6456 86.2536 53.0206 84.5637C60.4448 75.4408 62.7727 65.154 60.0044 53.7031C76.866 62.2598 83.0319 76.416 78.5019 96.1719C87.499 91.3273 91.3054 84.7525 89.9213 76.4475C99.0442 83.1167 103.48 92.7429 103.228 105.326V105.893C101.97 124.39 91.5571 133.324 71.99 132.695C57.0158 132.255 47.9244 125.806 44.7156 113.348C43.1779 105.146 44.735 97.2501 49.3872 89.66Z" stroke="#22B14C" stroke-width="3.5" stroke-linecap="round" stroke-linejoin="round"/>
</svg>
