<svg width="123" height="124" viewBox="0 0 123 124" fill="none" xmlns="http://www.w3.org/2000/svg">
<path d="M121.111 61.6587C121.111 78.1158 115.263 92.1387 103.569 103.727C91.98 115.422 77.9571 121.269 61.5 121.269C45.0958 121.269 31.0465 115.422 19.3519 103.727C7.76312 92.1387 1.96875 78.1158 1.96875 61.6587C1.96875 45.2545 7.76312 31.2052 19.3519 19.5106C31.0465 7.92182 45.0958 2.12744 61.5 2.12744C77.9571 2.12744 91.98 7.92182 103.569 19.5106C115.263 31.2052 121.111 45.2545 121.111 61.6587Z" stroke="#4F4F4F" stroke-width="3.5" stroke-linecap="round" stroke-linejoin="round"/>
<path d="M90.1549 26.7338C90.2078 26.7867 90.2608 26.8396 90.3137 26.8925C91.4249 27.7921 92.5097 28.7711 93.568 29.8294C96.0551 32.3165 98.1982 34.9623 99.9974 37.7669C99.9974 37.8198 100.024 37.8463 100.077 37.8463C100.13 37.8992 100.183 37.9786 100.236 38.0844C102.881 42.2648 104.786 46.7892 105.951 51.6575C106.003 51.975 106.056 52.2925 106.109 52.61C106.744 55.6792 107.062 58.8806 107.062 62.2144C107.062 65.654 106.718 68.9613 106.03 72.1363C104.284 80.55 100.13 87.9848 93.568 94.4406C87.1122 101.002 79.6774 105.156 71.2637 106.903C68.0887 107.59 64.7814 107.934 61.3418 107.934V96.1869V76.4225V55.4675V35.7825V16.4944C67.2155 16.4944 72.6924 17.4733 77.7724 19.4313C82.1645 21.0717 86.292 23.5058 90.1549 26.7338ZM90.1549 26.7338L61.3418 55.4675L90.1549 26.7338ZM61.3418 76.4225L100.077 37.8463M69.0412 106.664L105.871 70.2313L69.0412 106.664ZM61.3418 35.7825L77.7724 19.4313L61.3418 35.7825ZM61.3418 96.1869L105.951 51.6575L61.3418 96.1869Z" stroke="#22B14C" stroke-width="3.5" stroke-linecap="round" stroke-linejoin="round"/>
</svg>
