<svg width="134" height="135" viewBox="0 0 134 135" fill="none" xmlns="http://www.w3.org/2000/svg">
<path d="M101.069 77.0563L100.12 96.98M81.6627 60.1513L101.069 77.0563L131.946 64.2913L114.093 49.8875L102.966 54.3725L94.8589 47.0413C80.4839 51.4688 73.2964 53.7975 73.2964 54.0275L66.5689 71.0188L96.8427 114.575C110.585 113.31 120.648 106.669 127.03 94.6513L131.946 64.2913L81.6627 60.1513ZM42.2464 99.395L50.2677 110.435L73.5552 100.516C64.5852 88.2113 59.9852 82.0588 59.7552 82.0588L39.0552 93.4438L32.0689 104.57L35.7777 109.573L31.3789 116.818L38.7964 131.739C49.1464 134.499 57.8864 133.435 65.0164 128.547C72.8364 121.993 75.6827 112.649 73.5552 100.516L42.2464 99.395ZM50.2677 110.435L43.9714 122.941L50.2677 110.435Z" stroke="#4F4F4F" stroke-width="3.5" stroke-linecap="round" stroke-linejoin="round"/>
<path d="M29.7401 81.5413C14.7901 81.1388 5.70506 74.6988 2.48507 62.2213C0.587565 52.2163 3.34756 42.6425 10.7651 33.5C18.2401 24.3 20.5976 13.9788 17.8376 2.53625C34.6851 11.1613 40.8376 25.335 36.2951 45.0575C45.3226 40.17 49.1463 33.615 47.7663 25.3925C57.0238 32.12 61.4513 41.895 61.0488 54.7175" stroke="#22B14C" stroke-width="3.5" stroke-linecap="round" stroke-linejoin="round"/>
</svg>
