<svg width="115" height="114" viewBox="0 0 115 114" fill="none" xmlns="http://www.w3.org/2000/svg">
<path d="M19.7345 68.0926C18.6229 66.9809 17.2695 66.425 15.6745 66.425C14.1279 66.425 12.7987 66.9809 11.687 68.0926C10.5754 69.2042 10.0195 70.5334 10.0195 72.0801C10.0195 73.6751 10.5754 75.0284 11.687 76.1401C12.7987 77.2517 14.1279 77.8075 15.6745 77.8075C17.2695 77.8075 18.6229 77.2517 19.7345 76.1401C20.8462 75.0284 21.402 73.6751 21.402 72.0801C21.402 70.5334 20.8462 69.2042 19.7345 68.0926ZM98.397 66.425C96.8504 66.425 95.5212 66.9809 94.4095 68.0926C93.2979 69.2042 92.742 70.5334 92.742 72.0801C92.742 73.6751 93.2979 75.0284 94.4095 76.1401C95.5212 77.2517 96.8504 77.8075 98.397 77.8075C99.992 77.8075 101.345 77.2517 102.457 76.1401C103.569 75.0284 104.125 73.6751 104.125 72.0801C104.125 70.5334 103.569 69.2042 102.457 68.0926C101.345 66.9809 99.992 66.425 98.397 66.425Z" fill="#22B14C"/>
<path d="M57.0721 2.625V17.1975H70.1946V8.57C70.1946 7.36167 70.678 6.7575 71.6446 6.7575H82.9546C83.9213 6.7575 84.4046 7.36167 84.4046 8.57V17.1975H110.867C111.834 17.1975 112.317 17.6808 112.317 18.6475V110.65C112.317 111.617 111.834 112.1 110.867 112.1H57.0721H3.27715C2.31048 112.1 1.82715 111.617 1.82715 110.65V18.6475C1.82715 17.6808 2.31048 17.1975 3.27715 17.1975H29.7396V8.57C29.7396 7.36167 30.223 6.7575 31.1896 6.7575H42.4996C43.418 6.7575 43.8771 7.36167 43.8771 8.57V17.1975H57.0721V112.1V2.625ZM70.1946 17.1975H84.4046V90.1325C84.4046 90.3258 84.4046 90.5192 84.4046 90.7125C84.2113 91.5342 83.728 91.945 82.9546 91.945H71.6446C70.8713 91.945 70.4121 91.5342 70.2671 90.7125C70.2188 90.5192 70.1946 90.3258 70.1946 90.1325V17.1975ZM29.7396 90.1325C29.7396 90.3258 29.7396 90.5192 29.7396 90.7125C29.933 91.5342 30.4163 91.945 31.1896 91.945H42.4996C43.2246 91.945 43.6596 91.5342 43.8046 90.7125C43.853 90.5192 43.8771 90.3258 43.8771 90.1325V17.1975H29.7396V90.1325Z" stroke="#4F4F4F" stroke-width="3.5" stroke-linecap="round" stroke-linejoin="round"/>
<path d="M106.154 41.34C106.154 42.8867 105.623 44.2159 104.559 45.3275C103.448 46.4392 102.094 46.995 100.499 46.995C98.9045 46.995 97.5753 46.4392 96.512 45.3275C95.4003 44.2159 94.8445 42.8867 94.8445 41.34C94.8445 39.745 95.4003 38.3917 96.512 37.28C97.5753 36.1684 98.9045 35.6125 100.499 35.6125C102.094 35.6125 103.448 36.1684 104.559 37.28C105.623 38.3917 106.154 39.745 106.154 41.34ZM7.91699 41.34C7.91699 42.8867 8.47283 44.2159 9.58449 45.3275C10.6962 46.4392 12.0495 46.995 13.6445 46.995C15.1912 46.995 16.5203 46.4392 17.632 45.3275C18.7437 44.2159 19.2995 42.8867 19.2995 41.34C19.2995 39.745 18.7437 38.3917 17.632 37.28C16.5203 36.1684 15.1912 35.6125 13.6445 35.6125C12.0495 35.6125 10.6962 36.1684 9.58449 37.28C8.47283 38.3917 7.91699 39.745 7.91699 41.34ZM13.3545 99.34C13.3545 100.983 13.9345 102.361 15.0945 103.473C16.1578 104.633 17.5112 105.213 19.1545 105.213C20.7978 105.213 22.1995 104.633 23.3595 103.473C24.4228 102.361 24.9545 100.983 24.9545 99.34C24.9545 97.745 24.4228 96.3675 23.3595 95.2075C22.1995 94.0959 20.7978 93.54 19.1545 93.54C17.5112 93.54 16.1578 94.0959 15.0945 95.2075C13.9345 96.3675 13.3545 97.745 13.3545 99.34ZM100.789 99.34C100.789 100.983 100.209 102.361 99.0495 103.473C97.9378 104.633 96.5845 105.213 94.9895 105.213C93.3462 105.213 91.9445 104.633 90.7845 103.473C89.6728 102.361 89.117 100.983 89.117 99.34C89.117 97.745 89.6728 96.3675 90.7845 95.2075C91.9445 94.0959 93.3462 93.54 94.9895 93.54C96.5845 93.54 97.9378 94.0959 99.0495 95.2075C100.209 96.3675 100.789 97.745 100.789 99.34Z" stroke="#22B14C" stroke-width="3.5" stroke-linecap="round" stroke-linejoin="round"/>
</svg>
