<svg width="122" height="122" viewBox="0 0 122 122" fill="none" xmlns="http://www.w3.org/2000/svg">
<path d="M70.5309 27.9076C88.1192 31.9742 99.7092 24.5272 105.301 5.56633C97.1167 2.21133 89.0088 2.51633 80.9771 6.48133C72.9963 10.3955 69.3871 17.5122 70.1496 27.8313C70.2513 27.8822 70.3784 27.9076 70.5309 27.9076ZM70.5309 27.9076L70.8359 27.2213L70.5309 27.9076ZM50.9346 41.2513C41.0729 43.6405 33.4479 41.7342 28.0596 35.5326C25.1621 32.3809 22.9254 28.0347 21.3496 22.4938C26.1788 19.4438 32.1517 19.5963 39.2684 22.9513C44.8092 25.493 48.3929 29.6867 50.0196 35.5326C50.4771 37.3117 50.7821 39.218 50.9346 41.2513ZM50.9346 41.2513C55.5604 42.8272 58.8138 45.6738 60.6946 49.7913C60.5929 45.1147 61.9909 40.3617 64.8884 35.5326C66.3625 32.9909 68.2434 30.4492 70.5309 27.9076L50.9346 41.2513ZM60.6946 79.9863V49.7913" stroke="#22B14C" stroke-width="3.5" stroke-linecap="round" stroke-linejoin="round"/>
<path d="M47.6562 80.4437H73.9625M41.0225 58.4075H47.6562H73.9625H80.5962H41.0225ZM73.9625 58.4075V80.4437V105.911C73.9625 109.571 72.6662 112.672 70.0737 115.214C67.4812 117.806 64.3804 119.102 60.7712 119.102C57.162 119.102 54.0866 117.806 51.545 115.214C48.9525 112.672 47.6562 109.571 47.6562 105.911V80.4437V58.4075H73.9625Z" stroke="#4F4F4F" stroke-width="3.5" stroke-linecap="round" stroke-linejoin="round"/>
</svg>
