<svg width="121" height="118" viewBox="0 0 121 118" fill="none" xmlns="http://www.w3.org/2000/svg">
<path d="M48.1996 115.926L46.6621 42.7412M37.9752 116.08L25.5215 53.35C23.2665 54.8362 20.7296 55.6306 17.9109 55.7331C13.8621 55.8868 10.3258 54.5543 7.3021 51.7356C4.3296 49.0193 2.76647 45.6368 2.61272 41.5881C2.45897 37.4881 3.76585 33.9775 6.53335 31.0562C9.30085 28.0325 12.6833 26.4437 16.6808 26.29C16.3221 24.9575 16.0915 23.5225 15.989 21.985C15.784 16.9625 17.4496 12.5293 20.9859 8.68559C24.4709 4.89309 28.8271 2.89434 34.0546 2.68934C37.6421 2.58684 40.8965 3.35559 43.8177 4.99559C45.0477 5.66184 46.2265 6.53309 47.354 7.60934C47.6102 7.09684 47.9433 6.60997 48.3533 6.14872C48.9683 5.53372 49.6346 4.99559 50.3521 4.53434C51.9409 3.40684 53.8371 2.79184 56.0408 2.68934C59.0133 2.58684 61.6015 3.56059 63.8052 5.61059C66.1115 7.66059 67.3158 10.1975 67.4183 13.2212C67.4696 14.605 67.2902 15.8862 66.8802 17.065C68.264 16.7062 69.7758 16.5012 71.4158 16.45C76.4383 16.245 80.8202 17.885 84.5615 21.37C85.8427 22.4975 86.9446 23.7787 87.8671 25.2137C89.5071 27.8275 90.404 30.8 90.5577 34.1312C90.7627 39.3587 89.1227 43.7918 85.6377 47.4306C85.2277 47.8918 84.7921 48.3018 84.3308 48.6606C81.1021 51.6331 77.284 53.2218 72.8765 53.4268C71.3902 53.4781 69.9552 53.4268 68.5715 53.2731L60.7302 116.08H37.9752ZM68.5715 53.2731L69.8783 42.6643L68.5715 53.2731ZM25.5215 53.35L23.6765 44.8937L25.5215 53.35Z" stroke="#4F4F4F" stroke-width="3.5" stroke-linecap="round" stroke-linejoin="round"/>
<path d="M72.0312 115.465L82.4862 59.1156M96.0931 58.27C96.0419 60.5762 97.195 62.6519 99.5525 64.4969C101.193 65.8806 103.114 66.7519 105.318 67.1106C108.598 67.5719 111.519 66.8031 114.082 64.8044C116.644 62.8569 118.156 60.32 118.618 57.1937C119.13 53.965 118.412 51.0181 116.465 48.3531C114.517 45.7906 111.955 44.2531 108.778 43.7406C109.188 42.7669 109.469 41.6906 109.623 40.5119C110.187 36.4631 109.239 32.7731 106.779 29.4419C104.319 26.1619 101.064 24.2144 97.0156 23.5994L96.0931 58.27ZM82.7169 115.619L99.5525 64.4969L82.7169 115.619Z" stroke="#22B14C" stroke-width="3.5" stroke-linecap="round" stroke-linejoin="round"/>
</svg>
