<svg width="81" height="81" viewBox="0 0 81 81" fill="none" xmlns="http://www.w3.org/2000/svg">
<g clip-path="url(#clip0)">
<path d="M67.7911 48.4444L55.262 43.6249C56.1141 39.595 55.3111 35.2288 52.7151 31.654L65.8087 18.5604C72.4237 22.5852 81 17.8113 81 10.0059C81 4.48867 76.5113 0 70.9941 0C63.1822 0 58.4188 8.58298 62.4396 15.1913L49.346 28.2849C43.7244 24.2026 36.0175 24.482 30.6968 29.0402L24.0332 23.376C27.3577 16.7592 22.5232 8.89412 15.0882 8.89412C9.57102 8.89412 5.08235 13.3828 5.08235 18.9C5.08235 27.0888 14.3994 31.749 20.9456 27.0048L27.6081 32.6681C24.4566 37.8365 24.706 44.4175 28.285 49.346L19.5702 58.0606C11.3276 52.4726 0 58.364 0 68.4529C0 75.3715 5.62855 81 12.5471 81C22.6276 81 28.5334 69.681 22.9392 61.4299L31.654 52.7153C35.3062 55.3675 39.8663 56.1973 44.112 55.1504L49.5283 67.9531C44.4048 72.4995 47.6282 81 54.4765 81C58.5925 81 61.9412 77.6514 61.9412 73.5353C61.9412 69.258 58.3057 65.7658 53.9154 66.0939L48.4979 53.2885C50.5739 51.9855 52.3119 50.1917 53.5474 48.0705L66.0787 52.8909C65.9002 57.1598 69.3241 60.6706 73.5353 60.6706C77.6514 60.6706 81 57.322 81 53.2059C81 46.2821 72.2669 43.0542 67.7911 48.4444Z" fill="#828282"/>
<path d="M42.6185 46H40.6898V41.7143H36.9287V46H35V36H36.9287V40.0522H40.6898V36H42.6185V46Z" fill="white"/>
<path d="M47 46H43.7919V45.3201L45.3059 43.5962C45.5138 43.3535 45.667 43.1417 45.7656 42.9609C45.8663 42.78 45.9167 42.6083 45.9167 42.4457C45.9167 42.2237 45.8642 42.0497 45.7592 41.9238C45.6542 41.7956 45.5042 41.7315 45.3091 41.7315C45.0991 41.7315 44.933 41.8093 44.8109 41.965C44.6909 42.1184 44.6309 42.321 44.6309 42.5728H43.6986C43.6986 42.2683 43.7661 41.9902 43.9012 41.7383C44.0383 41.4865 44.2312 41.2896 44.4798 41.1477C44.7284 41.0034 45.0102 40.9313 45.3252 40.9313C45.8074 40.9313 46.1814 41.0549 46.4471 41.3022C46.715 41.5495 46.8489 41.8986 46.8489 42.3496C46.8489 42.5968 46.7889 42.8487 46.6689 43.1051C46.5489 43.3615 46.3432 43.6603 46.0517 44.0014L44.9877 45.1999H47V46Z" fill="white"/>
</g>
<defs>
<clipPath id="clip0">
<rect width="81" height="81" fill="white"/>
</clipPath>
</defs>
</svg>
