<svg width="30" height="22" viewBox="0 0 30 22" fill="none" xmlns="http://www.w3.org/2000/svg">
<path d="M6.208 0C8 0 9.472 0.576 10.624 1.728C11.776 2.83733 12.352 4.30933 12.352 6.144C12.352 6.99733 12.2453 7.85067 12.032 8.704C11.8187 9.55733 11.3493 10.8373 10.624 12.544L6.976 21.76H0.64L3.456 11.584C2.38933 11.1573 1.536 10.4747 0.896 9.536C0.298667 8.55467 0 7.424 0 6.144C0 4.30933 0.576 2.83733 1.728 1.728C2.92267 0.576 4.416 0 6.208 0Z" fill="white"/>
<path d="M22.958 0C24.75 0 26.222 0.576 27.374 1.728C28.526 2.83733 29.102 4.30933 29.102 6.144C29.102 6.99733 28.9953 7.85067 28.782 8.704C28.5687 9.55733 28.0993 10.8373 27.374 12.544L23.726 21.76H17.39L20.206 11.584C19.1393 11.1573 18.286 10.4747 17.646 9.536C17.0487 8.55467 16.75 7.424 16.75 6.144C16.75 4.30933 17.326 2.83733 18.478 1.728C19.6727 0.576 21.166 0 22.958 0Z" fill="white"/>
</svg>
